<svg width="61" height="61" viewBox="0 0 61 61" fill="none" xmlns="http://www.w3.org/2000/svg">
<g id="Group 7741">
<ellipse id="Ellipse 46" cx="30.5" cy="30.0253" rx="30.2163" ry="30.0253" fill="#00425E"/>
<path id="Vector" d="M29.6527 15.1885V19.9151H31.3187V15.1885H29.6525H29.6527ZM22.8495 16.6089L21.4845 17.5299L24.2974 21.4007L25.6617 20.4797L22.8495 16.6089ZM38.1216 16.6089L35.3095 20.4798L36.6739 21.4008L39.4868 17.5299L38.1218 16.6089H38.1216ZM30.4854 21.2084C26.4096 21.2084 23.1056 23.5933 23.1056 26.5358L27.2985 38.7716H33.673L37.8655 26.5358C37.8655 23.5934 34.5617 21.2084 30.4858 21.2084H30.4854ZM17.2318 22.6269L16.6626 24.1364L21.2695 25.7527L21.8409 24.2439L17.2317 22.6269H17.2318ZM43.7393 22.6269L39.1301 24.244L39.6995 25.753L44.3087 24.1365L43.7393 22.6269ZM21.6183 29.5276L16.8813 30.7519L17.3111 32.3016L22.0481 31.079L21.6184 29.5276H21.6183ZM39.3528 29.5276L38.9233 31.079L43.6603 32.3014L44.0898 30.7517L39.3528 29.5275V29.5276ZM27.2055 39.6636V41.7905H33.766V39.6639H27.2055L27.2055 39.6636ZM27.2055 42.8478V44.9747H33.766V42.8481H27.2055L27.2055 42.8478Z" fill="white"/>
</g>
</svg>
