<svg width="116" height="32" viewBox="0 0 116 32" fill="none" xmlns="http://www.w3.org/2000/svg">
<g clip-path="url(#clip0_1019_33137)">
<path d="M11.1212 9.17133C4.98641 9.17133 -1.52588e-05 14.1886 -1.52588e-05 20.3465C-1.52588e-05 26.5044 4.99412 31.5216 11.1212 31.5216C17.2482 31.5216 22.2424 26.5044 22.2424 20.3465C22.2424 14.1886 17.256 9.17133 11.1212 9.17133ZM12.5007 28.7548C8.40059 28.7548 5.17907 25.0555 5.17907 20.4313C5.17907 15.8071 8.33896 12.1616 12.4314 12.1616C16.5238 12.1616 20.0074 15.8071 20.0074 20.4313C20.0074 25.0555 16.5931 28.7548 12.5007 28.7548Z" fill="#1D1D1B"/>
<path d="M15.0826 19.8378C15.992 20.3619 17.1326 20.7087 18.0421 20.0536C19.4447 19.0286 19.2136 16.6625 18.019 14.8822C17.518 14.2811 16.9323 13.7339 16.2464 13.2637C18.5199 15.2059 17.0171 16.2772 17.0171 16.2772C16.3157 16.9477 14.7743 16.1693 13.8109 15.6837C12.8399 15.1905 11.8688 14.8205 11.8688 14.8205C11.8688 14.8205 9.10197 13.6183 6.11937 14.836C3.97682 15.7068 3.03655 17.5334 2.68203 18.4891C2.16566 20.7395 2.56644 23.0979 3.76103 25.0477C3.36026 24.1537 1.90363 20.1461 5.87274 17.4332C5.87274 17.4332 7.36789 16.3157 9.67228 16.7165" fill="url(#paint0_linear_1019_33137)"/>
<path d="M6.11935 14.8282C9.09425 13.6105 11.8688 14.8128 11.8688 14.8128C11.8688 14.8128 12.8398 15.1827 13.8109 15.676C14.782 16.1692 16.308 16.9476 17.0171 16.2694C17.0171 16.2694 18.5276 15.1982 16.2464 13.256C16.1153 13.1558 15.9689 13.071 15.8301 12.9785C11.6915 10.4429 6.27347 11.7377 3.74558 15.8764C3.23691 16.701 2.8901 17.5873 2.68201 18.4813C3.03653 17.5257 3.98451 15.7068 6.11935 14.8205V14.8282Z" fill="url(#paint1_linear_1019_33137)"/>
<path d="M12.6241 17.9804C11.838 17.6182 10.5586 17.3099 9.41027 18.3581C7.63766 19.9842 8.90929 22.7742 8.90929 22.7742C8.90929 22.7742 10.4121 25.9109 14.0498 26.3194C10.9979 25.6258 10.7898 23.198 10.7898 23.198C10.7898 23.198 10.3659 21.5565 11.7994 20.2848C12.8399 19.36 14.3504 19.622 15.0903 19.8378C14.1732 19.3137 13.4795 18.6201 13.4795 18.6201C13.1867 18.3735 12.9015 18.1577 12.6318 17.9727L12.6241 17.9804Z" fill="url(#paint2_linear_1019_33137)"/>
<path d="M5.70318 19.7299C6.48159 17.0093 8.83219 16.7241 9.67226 16.7087C7.36786 16.308 5.87271 17.4255 5.87271 17.4255C1.90361 20.1383 3.36023 24.146 3.75329 25.0477C4.45462 26.196 5.44114 27.2057 6.66656 27.9532C8.70891 29.2095 11.0672 29.5178 13.2329 29.0245C12.3697 28.9706 10.7513 28.8318 8.91699 27.6681C6.89775 26.3656 4.75522 23.067 5.70318 19.7376V19.7299Z" fill="url(#paint3_linear_1019_33137)"/>
<path d="M14.0421 26.3194C10.4044 25.9186 8.90155 22.7742 8.90155 22.7742C8.90155 22.7742 7.62221 19.9919 9.40252 18.358C10.5509 17.3022 11.8379 17.6105 12.6163 17.9804C11.5451 17.2405 10.5431 16.8706 9.66453 16.7087C8.82447 16.7242 6.47386 17.017 5.69546 19.7299C4.73979 23.0593 6.88233 26.3656 8.91698 27.6604C10.7435 28.8241 12.362 28.9629 13.2329 29.0168C15.4525 28.5082 17.464 27.144 18.7511 25.0554C18.8513 24.9013 18.9361 24.7317 19.0286 24.5699C18.5584 25.1479 17.017 26.6276 14.0575 26.3117C14.0575 26.3117 14.0575 26.3117 14.0421 26.3117" fill="url(#paint4_linear_1019_33137)"/>
<path opacity="0.52" d="M18.042 19.4987C17.6798 19.7685 17.2328 19.8764 16.7781 19.8532C16.4776 19.8378 16.1924 19.7685 15.915 19.676C15.7993 19.6297 15.676 19.5681 15.5604 19.5218C15.4371 19.4679 15.3138 19.4062 15.1982 19.3523C15.1596 19.3369 15.1211 19.3137 15.0903 19.2983C14.8899 19.1904 14.6972 19.0748 14.5046 18.9361C14.0961 18.6124 13.6876 18.2887 13.2868 17.9496C11.3447 16.3234 9.66454 16.1693 9.66454 16.1693C7.36015 15.7685 5.865 16.886 5.865 16.886C3.59143 18.4351 3.09818 20.4158 3.16755 21.9881C3.23691 20.516 3.84576 18.7974 5.865 17.4255C5.865 17.4255 7.36015 16.308 9.66454 16.7088C9.66454 16.7088 11.3447 16.8629 13.2868 18.4891C13.6876 18.8282 14.0884 19.1596 14.5046 19.4756C14.6818 19.6143 14.8822 19.7376 15.0903 19.8378C15.1288 19.8532 15.1673 19.8764 15.1982 19.8918C15.3138 19.9534 15.4448 20.0074 15.5604 20.0613C15.676 20.1153 15.7916 20.1769 15.915 20.2155C16.1924 20.3157 16.4853 20.3773 16.7781 20.3927C17.2251 20.4158 17.6721 20.3002 18.042 20.0382C18.7819 19.4987 19.0671 18.5893 18.9978 17.5874C18.9438 18.3735 18.6432 19.0594 18.042 19.491V19.4987Z" fill="url(#paint5_linear_1019_33137)"/>
<g opacity="0.46">
<path d="M9.65689 22.7818C9.65689 22.7818 8.3775 19.9996 10.1578 18.3657C10.6202 17.9418 11.1135 17.7415 11.5759 17.6721C10.9054 17.5796 10.127 17.7029 9.40255 18.3657C7.62994 19.9919 8.90157 22.7818 8.90157 22.7818C8.90157 22.7818 10.4044 25.9186 14.0421 26.327C13.0633 26.1035 12.3697 25.7028 11.8919 25.2635C10.3428 24.1999 9.64917 22.7818 9.64917 22.7818H9.65689Z" fill="url(#paint6_linear_1019_33137)"/>
</g>
<g opacity="0.47">
<path d="M6.44302 19.7299C7.0827 17.4871 8.79369 16.8937 9.84955 16.755C9.77248 16.7396 9.69537 16.7242 9.6183 16.7087C8.77824 16.7242 6.42763 17.017 5.64922 19.7299C4.69356 23.0593 6.8361 26.3656 8.87074 27.6604C10.6973 28.8241 12.3158 28.9629 13.1866 29.0168C13.256 29.0014 13.3177 28.986 13.387 28.9629C12.4699 28.8627 11.1366 28.5929 9.67225 27.6604C7.64531 26.3579 5.50277 23.0593 6.45073 19.7299H6.44302Z" fill="url(#paint7_linear_1019_33137)"/>
</g>
<g opacity="0.4">
<path d="M4.70895 25.0477C4.31589 24.146 2.85155 20.1307 6.82066 17.4178C6.82066 17.4178 7.69927 16.7627 9.14819 16.6317C7.13666 16.4621 5.87271 17.4178 5.87271 17.4178C1.90361 20.1384 3.36023 24.146 3.75329 25.0477C4.45462 26.1961 5.44114 27.2057 6.66656 27.9533C8.24649 28.9243 10.0114 29.3251 11.7377 29.2403C10.3273 29.1633 8.91699 28.7471 7.62222 27.9533C6.3968 27.2057 5.41029 26.1961 4.70895 25.0477Z" fill="url(#paint8_linear_1019_33137)"/>
</g>
<g opacity="0.3">
<path d="M17.017 15.7608C16.3157 16.4313 14.7743 15.6529 13.8109 15.1673C12.8398 14.6741 11.8688 14.3042 11.8688 14.3042C11.8688 14.3042 9.10195 13.1019 6.11934 14.3196C4.70125 14.9053 3.80723 15.8918 3.26774 16.7781C3.0057 17.3407 2.81301 17.9033 2.67429 18.4891C3.02881 17.5334 3.97679 15.7145 6.11162 14.8359C9.08653 13.6182 11.8611 14.8205 11.8611 14.8205C11.8611 14.8205 12.8321 15.1905 13.8032 15.6837C14.7743 16.177 16.3003 16.9554 17.0093 16.2772C17.0093 16.2772 17.6259 15.8379 17.4717 14.9978C17.3715 15.4988 17.0093 15.7608 17.0093 15.7608H17.017Z" fill="url(#paint9_linear_1019_33137)"/>
</g>
<path d="M21.78 7.9228H16.9169C14.5585 6.62031 12.2695 4.84 10.0345 2.57414C8.85534 3.93828 7.39101 5.18681 5.65694 6.30433C3.8535 7.46808 2.68972 8.04611 2.16564 8.04611C1.81112 8.04611 1.62614 7.96904 1.62614 7.8149C1.62614 7.69929 1.81883 7.54515 2.2196 7.33706C4.77062 6.01146 7.16749 4.09242 9.39481 1.57223C10.0807 0.79382 10.5123 0.339107 10.6973 0.208088C10.8746 0.0693619 11.152 0 11.5142 0C11.8456 0 12.1 0.0616558 12.2772 0.184968C12.4545 0.30828 12.9554 0.778407 13.7724 1.59535C16.2463 4.06159 18.913 6.17331 21.7954 7.9228H21.78Z" fill="#1D1D1B"/>
<path d="M25.8485 30.273V10.52C25.8485 9.81867 26.4189 9.24835 27.1202 9.24835H33.5864C35.3051 9.24835 36.6075 9.34854 37.517 9.54122C38.804 9.88033 39.8984 10.4121 40.8001 11.1597C43.1431 13.1558 44.3068 16.2001 44.3068 20.2848C44.3068 21.5873 44.1912 22.7664 43.9523 23.8146C43.7211 24.8627 43.4128 25.7876 43.0275 26.5814C42.6498 27.3829 42.2028 28.0688 41.7018 28.6315C41.2009 29.2095 40.6691 29.6796 40.1296 30.0572C38.8965 30.8896 37.2241 31.3751 35.1047 31.5139C34.4341 31.5601 33.833 31.0669 33.7559 30.3964L33.7405 30.3039C33.6481 29.5871 34.1798 28.932 34.9043 28.8858C35.7752 28.8241 36.4842 28.7008 37.0391 28.5159C37.8561 28.2384 38.5188 27.853 39.0429 27.3444C39.7443 26.6585 40.2915 25.7182 40.6768 24.539C41.0622 23.3599 41.2625 21.9341 41.2625 20.2617C41.2625 17.8879 40.8926 16.0845 40.1374 14.8513C39.3898 13.6105 38.4418 12.7782 37.3166 12.3389C36.9389 12.2155 36.4303 12.0922 35.7829 11.9843C35.1355 11.8764 34.3802 11.8302 33.5093 11.8302H29.8331C29.1318 11.8302 28.5614 12.4005 28.5614 13.1019V30.2808C28.5614 30.9821 27.9911 31.5524 27.2897 31.5524H27.1125C26.4266 31.5524 25.8563 30.9744 25.8563 30.273H25.8485Z" fill="#1D1D1B"/>
<path d="M52.1701 22.157H55.8464C56.4167 22.157 56.9176 22.5347 57.0717 23.0896L57.0949 23.1744C57.3184 23.9836 56.7172 24.7851 55.8695 24.7851H52.4013C51.8618 24.7851 51.384 25.1242 51.2067 25.6175L49.357 30.7041C49.1798 31.2051 48.7019 31.5365 48.1625 31.5365H47.7925C46.9062 31.5365 46.2819 30.6425 46.6056 29.8101L54.1739 10.0571C54.3589 9.56381 54.829 9.24011 55.3608 9.24011H56.7943C57.3107 9.24011 57.7731 9.5561 57.9658 10.0339L66.0658 29.787C66.4126 30.6193 65.7961 31.5442 64.8944 31.5442H64.3163C63.7846 31.5442 63.3067 31.2128 63.1218 30.7195L57.2644 14.9279C56.8482 13.8104 55.2529 13.8335 54.8675 14.9664L52.3628 22.4114L52.1778 22.157H52.1701Z" fill="#1D1D1B"/>
<path d="M73.1006 17.1171C73.1006 17.1171 72.7847 16.9784 72.7847 16.9398L72.6305 16.8011C72.0448 16.2616 71.7596 15.6065 71.7596 14.8435C71.7596 13.9187 72.1604 13.1249 72.9774 12.4698C73.7866 11.8224 75.0891 11.491 76.8771 11.491C78.6651 11.491 79.9522 11.8455 80.8 12.5545C81.4319 13.0863 81.8712 13.8262 82.1256 14.7587C82.2797 15.3522 82.8731 15.7298 83.482 15.6836L83.798 15.6605C84.5764 15.6065 85.1236 14.8666 84.954 14.1114C84.638 12.7318 83.929 11.5912 82.8269 10.6895C81.3548 9.49487 79.3433 8.90143 76.7846 8.90143H76.4147C75.3511 8.90143 74.3723 9.05557 73.4552 9.37156C72.538 9.68754 71.7442 10.1114 71.066 10.6509C70.3878 11.1904 69.8637 11.8147 69.4938 12.5391C69.1238 13.2636 68.9235 14.0189 68.9235 14.8127V15.0362C68.9235 18.2886 71.6286 19.7914 74.38 20.6623C75.0814 20.8858 75.8366 20.5005 76.0447 19.7914L76.1064 19.5833C76.3145 18.8897 75.9214 18.173 75.2355 17.9572C74.5033 17.7414 73.7866 17.4793 73.1161 17.1325L73.1006 17.1171Z" fill="#1D1D1B"/>
<path d="M84.7227 22.2963C83.5358 21.0555 81.7709 20.1229 80.0831 19.4524C79.374 19.1673 78.5648 19.568 78.349 20.3002C78.1486 20.9784 78.5186 21.7106 79.1968 21.9187C79.9367 22.1422 80.6457 22.435 81.2931 22.8358C82.0946 23.3368 82.7728 24.0998 82.9501 25.0246C83.189 26.25 82.4877 27.5062 81.4704 28.2307C80.453 28.9475 79.1814 29.1941 77.9328 29.2634C76.5456 29.3328 75.1198 29.1864 73.8559 28.6006C72.5919 28.0149 71.5206 26.9436 71.1353 25.6103C71.0428 25.2943 70.9888 24.9706 70.7884 24.7163C70.5341 24.3772 70.0871 24.2462 69.6632 24.2539C69.1546 24.2539 68.6151 24.4697 68.3761 24.9167C68.1681 25.2866 68.2066 25.7413 68.2837 26.1652C68.4609 27.0747 68.8386 27.9533 69.4089 28.6854C71.2123 31.0129 74.0177 31.8915 76.7845 31.9917C78.6111 32.0534 80.4762 31.7759 82.1024 30.9436C84.1601 29.88 85.8094 27.8376 85.8094 25.4408V25.2789C85.8094 24.0535 85.4472 23.0593 84.715 22.2963H84.7227Z" fill="#1D1D1B"/>
<path d="M78.75 18.9587C78.6035 18.9047 78.8964 19.0126 78.75 18.9587V18.9587Z" fill="#1D1D1B"/>
<path d="M92.0989 14.9902H91.7212C91.0045 14.9902 90.4188 15.576 90.4188 16.2927V30.2732C90.4188 30.99 91.0045 31.5757 91.7212 31.5757H92.0989C92.8156 31.5757 93.4014 30.99 93.4014 30.2732V16.2927C93.4014 15.576 92.8156 14.9902 92.0989 14.9902Z" fill="#1D1D1B"/>
<path d="M92.0989 9.25592H91.7212C91.0045 9.25592 90.4188 9.84165 90.4188 10.5584V10.9129C90.4188 11.6297 91.0045 12.2154 91.7212 12.2154H92.0989C92.8156 12.2154 93.4014 11.6297 93.4014 10.9129V10.5584C93.4014 9.84165 92.8156 9.25592 92.0989 9.25592Z" fill="#1D1D1B"/>
<path d="M98.6406 30.273V10.52C98.6406 9.81867 99.2109 9.24835 99.9122 9.24835H113.507C114.209 9.24835 114.779 9.81867 114.779 10.52V10.6356C114.779 11.3369 114.209 11.9073 113.507 11.9073H102.895C102.194 11.9073 101.623 12.4776 101.623 13.1789V27.6604C101.623 28.3617 102.194 28.932 102.895 28.932H114.008C114.71 28.932 115.28 29.5023 115.28 30.2037V30.2885C115.28 30.9898 114.71 31.5601 114.008 31.5601H99.92C99.2263 31.5601 98.6483 30.9975 98.6483 30.2962L98.6406 30.273ZM112.02 20.0613C112.02 20.7626 111.45 21.3329 110.748 21.3329H105.23C104.529 21.3329 103.958 20.7626 103.958 20.0613C103.958 19.3599 104.529 18.7896 105.23 18.7896H110.748C111.45 18.7896 112.02 19.3599 112.02 20.0613Z" fill="#1D1D1B"/>
</g>
<defs>
<linearGradient id="paint0_linear_1019_33137" x1="4.524" y1="26.3271" x2="13.9882" y2="14.5354" gradientUnits="userSpaceOnUse">
<stop stop-color="#00A270"/>
<stop offset="1" stop-color="#1B9DD9"/>
</linearGradient>
<linearGradient id="paint1_linear_1019_33137" x1="2.68201" y1="15.0903" x2="17.5026" y2="15.0903" gradientUnits="userSpaceOnUse">
<stop stop-color="#00A270"/>
<stop offset="1" stop-color="#1B9DD9"/>
</linearGradient>
<linearGradient id="paint2_linear_1019_33137" x1="13.5181" y1="26.4889" x2="11.0287" y2="18.1345" gradientUnits="userSpaceOnUse">
<stop stop-color="#197C81"/>
<stop offset="1" stop-color="#01425E"/>
</linearGradient>
<linearGradient id="paint3_linear_1019_33137" x1="13.9265" y1="29.9802" x2="2.87468" y2="16.123" gradientUnits="userSpaceOnUse">
<stop stop-color="#197C81"/>
<stop offset="1" stop-color="#01425E"/>
</linearGradient>
<linearGradient id="paint4_linear_1019_33137" x1="13.9496" y1="28.5544" x2="10.0884" y2="17.1789" gradientUnits="userSpaceOnUse">
<stop stop-color="#197C81"/>
<stop offset="1" stop-color="#01425E"/>
</linearGradient>
<linearGradient id="paint5_linear_1019_33137" x1="16.5392" y1="21.4871" x2="-8.45463" y2="13.7107" gradientUnits="userSpaceOnUse">
<stop stop-color="white"/>
<stop offset="1" stop-color="#1B9DD9" stop-opacity="0"/>
</linearGradient>
<linearGradient id="paint6_linear_1019_33137" x1="9.78788" y1="24.7548" x2="15.4217" y2="17.6413" gradientUnits="userSpaceOnUse">
<stop stop-color="#0088AC"/>
<stop offset="1" stop-color="#02405C"/>
</linearGradient>
<linearGradient id="paint7_linear_1019_33137" x1="7.98444" y1="27.329" x2="12.5316" y2="18.1808" gradientUnits="userSpaceOnUse">
<stop stop-color="#0088AC"/>
<stop offset="1" stop-color="#02405C"/>
</linearGradient>
<linearGradient id="paint8_linear_1019_33137" x1="7.08271" y1="28.4157" x2="8.37748" y2="18.3966" gradientUnits="userSpaceOnUse">
<stop stop-color="#0088AC"/>
<stop offset="1" stop-color="#02405C"/>
</linearGradient>
<linearGradient id="paint9_linear_1019_33137" x1="16.624" y1="17.0324" x2="-5.59533" y2="15.1288" gradientUnits="userSpaceOnUse">
<stop stop-color="white"/>
<stop offset="1" stop-color="#1B9DD9" stop-opacity="0"/>
</linearGradient>
<clipPath id="clip0_1019_33137">
<rect width="115.28" height="32" fill="white"/>
</clipPath>
</defs>
</svg>
