<svg width="29" height="38" viewBox="0 0 29 38" fill="none" xmlns="http://www.w3.org/2000/svg">
<g filter="url(#filter0_dd_1083_50505)">
<path d="M14.29 11.3105C8.0621 11.3105 3 16.4039 3 22.6553C3 28.9066 8.06992 34 14.29 34C20.51 34 25.5799 28.9066 25.5799 22.6553C25.5799 16.4039 20.5178 11.3105 14.29 11.3105ZM15.6904 31.1912C11.5281 31.1912 8.25768 27.4357 8.25768 22.7414C8.25768 18.047 11.4655 14.3462 15.6201 14.3462C19.7746 14.3462 23.311 18.047 23.311 22.7414C23.311 27.4357 19.845 31.1912 15.6904 31.1912Z" fill="#1D1D1B"/>
<path d="M18.3115 22.1389C19.2347 22.6709 20.3927 23.023 21.3159 22.3579C22.7399 21.3173 22.5052 18.9154 21.2924 17.1081C20.7839 16.4978 20.1893 15.9423 19.4929 15.465C21.801 17.4367 20.2753 18.5242 20.2753 18.5242C19.5634 19.2049 17.9985 18.4147 17.0205 17.9218C16.0347 17.421 15.0489 17.0455 15.0489 17.0455C15.0489 17.0455 12.2401 15.8249 9.21225 17.0611C7.03719 17.9452 6.08265 19.7995 5.72275 20.7697C5.19854 23.0543 5.60541 25.4484 6.81812 27.4279C6.41127 26.5203 4.93254 22.4518 8.96188 19.6978C8.96188 19.6978 10.4797 18.5633 12.8191 18.9702" fill="url(#paint0_linear_1083_50505)"/>
<path d="M9.21223 17.0533C12.2323 15.8171 15.0489 17.0376 15.0489 17.0376C15.0489 17.0376 16.0347 17.4132 17.0205 17.9139C18.0063 18.4147 19.5555 19.2049 20.2753 18.5164C20.2753 18.5164 21.8088 17.4288 19.4929 15.4572C19.3599 15.3555 19.2112 15.2694 19.0704 15.1755C14.8689 12.6015 9.36869 13.9159 6.80244 18.1173C6.28605 18.9545 5.93397 19.8543 5.72272 20.7618C6.08263 19.7917 7.04499 17.9452 9.21223 17.0455V17.0533Z" fill="url(#paint1_linear_1083_50505)"/>
<path d="M15.8157 20.2533C15.0176 19.8855 13.7189 19.5726 12.5531 20.6366C10.7536 22.2875 12.0445 25.1198 12.0445 25.1198C12.0445 25.1198 13.5702 28.3041 17.2631 28.7188C14.1648 28.0146 13.9536 25.5501 13.9536 25.5501C13.9536 25.5501 13.5232 23.8836 14.9785 22.5926C16.0347 21.6538 17.5682 21.9198 18.3194 22.1388C17.3883 21.6068 16.6841 20.9027 16.6841 20.9027C16.3868 20.6523 16.0973 20.4332 15.8235 20.2454L15.8157 20.2533Z" fill="url(#paint2_linear_1083_50505)"/>
<path d="M8.78975 22.0293C9.57997 19.2674 11.9663 18.9779 12.8191 18.9623C10.4797 18.5554 8.96186 19.6899 8.96186 19.6899C4.93252 22.444 6.41125 26.5124 6.81027 27.4278C7.52225 28.5936 8.52374 29.6185 9.76775 30.3775C11.8411 31.6528 14.2352 31.9657 16.4337 31.465C15.5574 31.4102 13.9144 31.2694 12.0523 30.088C10.0025 28.7657 7.82741 25.4171 8.78975 22.0371V22.0293Z" fill="url(#paint3_linear_1083_50505)"/>
<path d="M17.2552 28.7188C13.5623 28.312 12.0367 25.1198 12.0367 25.1198C12.0367 25.1198 10.7379 22.2953 12.5452 20.6367C13.711 19.5648 15.0176 19.8777 15.8078 20.2533C14.7203 19.5022 13.7032 19.1266 12.8112 18.9623C11.9584 18.978 9.57213 19.2753 8.78191 22.0293C7.81174 25.4093 9.98679 28.7658 12.0523 30.0802C13.9066 31.2616 15.5496 31.4024 16.4337 31.4572C18.687 30.9408 20.7291 29.556 22.0357 27.4357C22.1374 27.2792 22.2235 27.1071 22.3174 26.9428C21.8401 27.5296 20.2753 29.0318 17.2709 28.711C17.2709 28.711 17.2709 28.711 17.2552 28.711" fill="url(#paint4_linear_1083_50505)"/>
<path opacity="0.52" d="M21.3159 21.7946C20.9481 22.0685 20.4944 22.178 20.0328 22.1545C19.7276 22.1389 19.4382 22.0685 19.1565 21.9746C19.0391 21.9276 18.9139 21.8651 18.7966 21.8181C18.6714 21.7633 18.5462 21.7007 18.4288 21.646C18.3897 21.6303 18.3506 21.6069 18.3193 21.5912C18.1159 21.4817 17.9203 21.3643 17.7247 21.2235C17.31 20.8949 16.8953 20.5663 16.4885 20.222C14.5169 18.5712 12.8112 18.4147 12.8112 18.4147C10.4719 18.0078 8.95401 19.1423 8.95401 19.1423C6.64595 20.7149 6.14521 22.7257 6.21563 24.3218C6.28604 22.8274 6.90414 21.0827 8.95401 19.69C8.95401 19.69 10.4719 18.5555 12.8112 18.9624C12.8112 18.9624 14.5169 19.1188 16.4885 20.7697C16.8953 21.114 17.3022 21.4504 17.7247 21.7712C17.9046 21.912 18.1081 22.0372 18.3193 22.1389C18.3584 22.1545 18.3975 22.178 18.4288 22.1937C18.5462 22.2563 18.6792 22.311 18.7966 22.3658C18.9139 22.4206 19.0313 22.4831 19.1565 22.5223C19.4382 22.624 19.7355 22.6866 20.0328 22.7022C20.4866 22.7257 20.9403 22.6083 21.3159 22.3423C22.067 21.7946 22.3565 20.8714 22.2861 19.8543C22.2313 20.6523 21.9261 21.3487 21.3159 21.7868V21.7946Z" fill="url(#paint5_linear_1083_50505)"/>
<g opacity="0.46">
<path d="M12.8035 25.1276C12.8035 25.1276 11.5047 22.3032 13.312 20.6445C13.7814 20.2142 14.2822 20.0107 14.7516 19.9403C14.0709 19.8464 13.2807 19.9716 12.5453 20.6445C10.7457 22.2953 12.0367 25.1276 12.0367 25.1276C12.0367 25.1276 13.5623 28.312 17.2553 28.7266C16.2616 28.4997 15.5575 28.0929 15.0724 27.6469C13.4998 26.5672 12.7956 25.1276 12.7956 25.1276H12.8035Z" fill="url(#paint6_linear_1083_50505)"/>
</g>
<g opacity="0.47">
<path d="M9.54082 22.0293C10.1902 19.7526 11.9272 19.1501 12.999 19.0093C12.9208 18.9936 12.8425 18.978 12.7643 18.9623C11.9115 18.978 9.52519 19.2753 8.73497 22.0293C7.7648 25.4093 9.93986 28.7658 12.0054 30.0802C13.8597 31.2616 15.5027 31.4024 16.3868 31.4572C16.4572 31.4416 16.5198 31.4259 16.5902 31.4024C15.6592 31.3007 14.3056 31.0269 12.8191 30.0802C10.7614 28.7579 8.5863 25.4093 9.54865 22.0293H9.54082Z" fill="url(#paint7_linear_1083_50505)"/>
</g>
<g opacity="0.4">
<path d="M7.78043 27.4279C7.38141 26.5125 5.89485 22.4362 9.92419 19.6822C9.92419 19.6822 10.8161 19.0171 12.287 18.8841C10.245 18.712 8.96186 19.6822 8.96186 19.6822C4.93252 22.444 6.41125 26.5125 6.81027 27.4279C7.52225 28.5936 8.52374 29.6186 9.76775 30.3775C11.3717 31.3633 13.1633 31.7702 14.9159 31.6841C13.4841 31.6059 12.0523 31.1834 10.7379 30.3775C9.4939 29.6186 8.49241 28.5936 7.78043 27.4279Z" fill="url(#paint8_linear_1083_50505)"/>
</g>
<g opacity="0.3">
<path d="M20.2753 18C19.5633 18.6807 17.9985 17.8904 17.0205 17.3975C16.0347 16.8968 15.0489 16.5213 15.0489 16.5213C15.0489 16.5213 12.2401 15.3007 9.21222 16.5369C7.77262 17.1315 6.86503 18.133 6.31735 19.0327C6.05134 19.6039 5.85572 20.175 5.71489 20.7697C6.07479 19.7995 7.03716 17.953 9.20439 17.0611C12.2244 15.8249 15.0411 17.0455 15.0411 17.0455C15.0411 17.0455 16.0269 17.421 17.0127 17.9217C17.9985 18.4225 19.5477 19.2127 20.2675 18.5242C20.2675 18.5242 20.8934 18.0782 20.7369 17.2254C20.6352 17.734 20.2675 18 20.2675 18H20.2753Z" fill="url(#paint9_linear_1083_50505)"/>
</g>
<path d="M25.1105 10.043H20.1736C17.7795 8.72078 15.4558 6.91345 13.1868 4.6132C11.9897 5.99804 10.5032 7.26552 8.7428 8.4C6.912 9.58142 5.73056 10.1682 5.19853 10.1682C4.83863 10.1682 4.65084 10.09 4.65084 9.9335C4.65084 9.81614 4.84646 9.65966 5.2533 9.44841C7.84303 8.10269 10.2763 6.15452 12.5374 3.59609C13.2337 2.80587 13.6719 2.34425 13.8597 2.21125C14.0396 2.07041 14.3213 2 14.689 2C15.0254 2 15.2836 2.06259 15.4636 2.18777C15.6435 2.31296 16.1521 2.79022 16.9814 3.61956C19.4929 6.12323 22.2 8.26699 25.1262 10.043H25.1105Z" fill="#1D1D1B"/>
</g>
<defs>
<filter id="filter0_dd_1083_50505" x="0" y="0" width="28.5799" height="38.0001" filterUnits="userSpaceOnUse" color-interpolation-filters="sRGB">
<feFlood flood-opacity="0" result="BackgroundImageFix"/>
<feColorMatrix in="SourceAlpha" type="matrix" values="0 0 0 0 0 0 0 0 0 0 0 0 0 0 0 0 0 0 127 0" result="hardAlpha"/>
<feOffset dy="1"/>
<feGaussianBlur stdDeviation="1"/>
<feColorMatrix type="matrix" values="0 0 0 0 0.0627451 0 0 0 0 0.0941176 0 0 0 0 0.156863 0 0 0 0.06 0"/>
<feBlend mode="normal" in2="BackgroundImageFix" result="effect1_dropShadow_1083_50505"/>
<feColorMatrix in="SourceAlpha" type="matrix" values="0 0 0 0 0 0 0 0 0 0 0 0 0 0 0 0 0 0 127 0" result="hardAlpha"/>
<feOffset dy="1"/>
<feGaussianBlur stdDeviation="1.5"/>
<feColorMatrix type="matrix" values="0 0 0 0 0.0627451 0 0 0 0 0.0941176 0 0 0 0 0.156863 0 0 0 0.1 0"/>
<feBlend mode="normal" in2="effect1_dropShadow_1083_50505" result="effect2_dropShadow_1083_50505"/>
<feBlend mode="normal" in="SourceGraphic" in2="effect2_dropShadow_1083_50505" result="shape"/>
</filter>
<linearGradient id="paint0_linear_1083_50505" x1="7.59268" y1="28.7266" x2="17.2005" y2="16.756" gradientUnits="userSpaceOnUse">
<stop stop-color="#00A270"/>
<stop offset="1" stop-color="#1B9DD9"/>
</linearGradient>
<linearGradient id="paint1_linear_1083_50505" x1="5.72272" y1="17.3193" x2="20.7682" y2="17.3193" gradientUnits="userSpaceOnUse">
<stop stop-color="#00A270"/>
<stop offset="1" stop-color="#1B9DD9"/>
</linearGradient>
<linearGradient id="paint2_linear_1083_50505" x1="16.7233" y1="28.8909" x2="14.1961" y2="20.4098" gradientUnits="userSpaceOnUse">
<stop stop-color="#197C81"/>
<stop offset="1" stop-color="#01425E"/>
</linearGradient>
<linearGradient id="paint3_linear_1083_50505" x1="17.1379" y1="32.4352" x2="5.91832" y2="18.3677" gradientUnits="userSpaceOnUse">
<stop stop-color="#197C81"/>
<stop offset="1" stop-color="#01425E"/>
</linearGradient>
<linearGradient id="paint4_linear_1083_50505" x1="17.1614" y1="30.9878" x2="13.2416" y2="19.4396" gradientUnits="userSpaceOnUse">
<stop stop-color="#197C81"/>
<stop offset="1" stop-color="#01425E"/>
</linearGradient>
<linearGradient id="paint5_linear_1083_50505" x1="19.7902" y1="23.8132" x2="-5.58292" y2="15.9188" gradientUnits="userSpaceOnUse">
<stop stop-color="white"/>
<stop offset="1" stop-color="#1B9DD9" stop-opacity="0"/>
</linearGradient>
<linearGradient id="paint6_linear_1083_50505" x1="12.9364" y1="27.1305" x2="18.6558" y2="19.909" gradientUnits="userSpaceOnUse">
<stop stop-color="#0088AC"/>
<stop offset="1" stop-color="#02405C"/>
</linearGradient>
<linearGradient id="paint7_linear_1083_50505" x1="11.1056" y1="29.7438" x2="15.7218" y2="20.4567" gradientUnits="userSpaceOnUse">
<stop stop-color="#0088AC"/>
<stop offset="1" stop-color="#02405C"/>
</linearGradient>
<linearGradient id="paint8_linear_1083_50505" x1="10.1902" y1="30.847" x2="11.5046" y2="20.6758" gradientUnits="userSpaceOnUse">
<stop stop-color="#0088AC"/>
<stop offset="1" stop-color="#02405C"/>
</linearGradient>
<linearGradient id="paint9_linear_1083_50505" x1="19.8763" y1="19.2909" x2="-2.68023" y2="17.3584" gradientUnits="userSpaceOnUse">
<stop stop-color="white"/>
<stop offset="1" stop-color="#1B9DD9" stop-opacity="0"/>
</linearGradient>
</defs>
</svg>
