<svg width="759" height="957" viewBox="0 0 759 957" fill="none" xmlns="http://www.w3.org/2000/svg">
<g clip-path="url(#clip0_1572_4787)">
<g opacity="0.05">
<path d="M362.717 85.7102C334.004 67.2659 316.553 56.7576 310.557 54.1664C304.558 51.5601 296.831 51.2226 287.294 52.9318C276.902 54.7941 269.303 58.0993 264.987 62.9808C260.624 67.6497 250.92 82.5978 235.854 107.797C187.066 189.459 129.556 255.383 63.7967 305.689C53.6217 313.564 48.9745 318.947 49.6745 322.061C50.658 326.435 56.3296 327.583 66.7211 325.721C81.8893 323.003 112.071 300.924 157.193 259.088C200.429 218.886 235.086 176.54 260.737 132.332C339.722 183.954 417.393 221.749 493.985 245.675L629.772 221.341C631.353 221.058 631.489 219.027 629.964 218.463C537.258 184.784 448.215 140.463 362.698 85.6978L362.717 85.7102Z" fill="#00425E"/>
<path d="M320.985 292.46C144.046 323.798 31.6173 485.225 69.8548 652.997C108.092 820.768 282.525 931.391 459.464 900.053C636.404 868.716 748.836 707.303 710.595 539.517C672.354 371.731 497.925 261.123 320.985 292.46ZM599.907 473.687C616 497.445 628.162 524.014 634.757 552.948C646.553 604.705 639.221 655.606 617.698 699.599C586.033 764.308 523.337 813.923 443.074 828.139C432.577 829.998 422.106 830.979 411.673 831.555C333.004 835.899 257.754 804.633 206.411 750.888C206.411 750.888 206.389 750.861 206.37 750.849C193.764 737.64 182.468 723.234 173.072 707.527C172.681 706.876 172.291 706.225 171.915 705.572C168.897 700.408 166.19 695.051 163.554 689.65C162.322 687.081 161.062 684.531 159.92 681.93C158.118 677.852 156.502 673.666 154.928 669.456C153.603 665.907 152.296 662.37 151.153 658.773C149.883 654.831 148.805 650.81 147.742 646.785C147.111 644.369 146.26 642.054 145.699 639.595C145.404 638.299 145.309 637.029 145.029 635.731C144.073 631.182 143.348 626.653 142.669 622.116C142.214 619.057 141.709 615.99 141.378 612.909C140.75 606.892 140.356 600.911 140.212 594.962C140.168 593.637 140.094 592.318 140.066 590.99C139.382 481.811 219.771 385.219 337.363 364.392C441.244 345.994 544.069 392.138 599.228 472.689C599.33 472.855 599.429 473.006 599.547 473.169C599.577 473.301 599.576 473.439 599.606 473.572" fill="#00425E"/>
</g>
</g>
<defs>
<clipPath id="clip0_1572_4787">
<rect width="758" height="957" fill="white" transform="translate(0.96875)"/>
</clipPath>
</defs>
</svg>
