<svg width="61" height="60" viewBox="0 0 61 60" fill="none" xmlns="http://www.w3.org/2000/svg">
<g id="Group 7742">
<circle id="Ellipse 46" cx="30.5" cy="30" r="30" fill="#FFC039"/>
<path id="Vector" d="M16.1516 42.7067V39.9053C16.1516 39.9053 23.2202 37.1039 30.2887 37.1039C37.3573 37.1039 44.4259 39.9053 44.4259 39.9053V42.7067H16.1516ZM29.2991 24.6377C27.6027 19.1749 18.979 20.4356 18.979 20.4356C18.979 20.4356 19.2618 31.361 27.3199 29.6802C26.7545 25.6182 24.6339 24.4976 24.6339 24.4976C28.5923 24.4976 28.875 29.26 28.875 29.26V35.7032H31.7025V29.8203C31.7025 29.8203 31.7025 24.3575 35.9436 22.9568C35.9436 22.9568 33.1162 27.1589 33.1162 29.9603C43.0122 30.9408 43.0122 17.4941 43.0122 17.4941C43.0122 17.4941 30.4301 16.0934 29.2991 24.6377Z" fill="#101828"/>
</g>
</svg>
