<svg width="61" height="60" viewBox="0 0 61 60" fill="none" xmlns="http://www.w3.org/2000/svg">
<g id="Group 7744">
<circle id="Ellipse 46" cx="30.5" cy="30" r="30" fill="#FFC039"/>
<path id="Vector" d="M30.0745 28.5426C32.106 28.5426 34.0542 29.3496 35.4907 30.786C36.9271 32.2225 37.7341 34.1707 37.7341 36.2022V43.8618C37.7341 44.7078 37.0482 45.3937 36.2022 45.3937C35.3561 45.3937 34.6703 44.7078 34.6703 43.8618V36.2022C34.6703 35.0299 34.2224 33.902 33.4183 33.0491C32.6141 32.1962 31.5144 31.6829 30.3441 31.6141L30.0745 31.6064C28.9023 31.6064 27.7743 32.0543 26.9214 32.8584C26.0686 33.6626 25.5552 34.7623 25.4864 35.9326L25.4788 36.2022V43.8618C25.4788 44.7078 24.7929 45.3937 23.9469 45.3937C23.1008 45.3937 22.4149 44.7078 22.4149 43.8618V36.2022C22.4149 34.1707 23.2219 32.2225 24.6584 30.786C26.0948 29.3496 28.0431 28.5426 30.0745 28.5426ZM20.1171 33.1384C20.7898 33.14 21.1675 33.832 21.0427 34.493C20.9678 34.8896 20.919 35.2912 20.8968 35.6951L20.883 36.2022C20.883 36.2664 20.8194 36.3113 20.7578 36.2932C20.6207 36.2529 20.48 36.2255 20.3377 36.2114L20.1171 36.2022C19.5461 36.2022 18.9956 36.4147 18.5727 36.7985C18.1499 37.1822 17.8851 37.7096 17.8299 38.2779L17.8192 38.5001V43.8618C17.8192 44.7078 17.1333 45.3937 16.2873 45.3937C15.4412 45.3937 14.7554 44.7078 14.7554 43.8618V38.5001C14.7554 37.078 15.3203 35.7143 16.3258 34.7088C17.3313 33.7032 18.6951 33.1384 20.1171 33.1384ZM40.032 33.1384C41.454 33.1384 42.8178 33.7032 43.8233 34.7088C44.8288 35.7143 45.3937 37.078 45.3937 38.5001V43.8618C45.3937 44.7078 44.7078 45.3937 43.8618 45.3937C43.0157 45.3937 42.3298 44.7078 42.3298 43.8618V38.5001C42.3298 37.9291 42.1173 37.3785 41.7335 36.9557C41.3498 36.5329 40.8224 36.2681 40.2541 36.2129L40.032 36.2022C39.8081 36.203 39.5941 36.2331 39.3899 36.2924C39.3289 36.3101 39.266 36.2657 39.266 36.2022C39.266 35.6181 39.2118 35.0472 39.108 34.4938C38.9839 33.8328 39.3594 33.1384 40.032 33.1384ZM20.1171 23.9469C21.1328 23.9469 22.1069 24.3504 22.8251 25.0686C23.5434 25.7868 23.9469 26.7609 23.9469 27.7766C23.9469 28.7924 23.5434 29.7665 22.8251 30.4847C22.1069 31.2029 21.1328 31.6064 20.1171 31.6064C19.1014 31.6064 18.1272 31.2029 17.409 30.4847C16.6908 29.7665 16.2873 28.7924 16.2873 27.7766C16.2873 26.7609 16.6908 25.7868 17.409 25.0686C18.1272 24.3504 19.1014 23.9469 20.1171 23.9469ZM40.032 23.9469C41.0477 23.9469 42.0218 24.3504 42.74 25.0686C43.4583 25.7868 43.8618 26.7609 43.8618 27.7766C43.8618 28.7924 43.4583 29.7665 42.74 30.4847C42.0218 31.2029 41.0477 31.6064 40.032 31.6064C39.0162 31.6064 38.0421 31.2029 37.3239 30.4847C36.6057 29.7665 36.2022 28.7924 36.2022 27.7766C36.2022 26.7609 36.6057 25.7868 37.3239 25.0686C38.0421 24.3504 39.0162 23.9469 40.032 23.9469ZM20.1171 27.0107C19.9139 27.0107 19.7191 27.0914 19.5755 27.235C19.4318 27.3787 19.3511 27.5735 19.3511 27.7766C19.3511 27.9798 19.4318 28.1746 19.5755 28.3183C19.7191 28.4619 19.9139 28.5426 20.1171 28.5426C20.3202 28.5426 20.515 28.4619 20.6587 28.3183C20.8023 28.1746 20.883 27.9798 20.883 27.7766C20.883 27.5735 20.8023 27.3787 20.6587 27.235C20.515 27.0914 20.3202 27.0107 20.1171 27.0107ZM40.032 27.0107C39.8288 27.0107 39.634 27.0914 39.4904 27.235C39.3467 27.3787 39.266 27.5735 39.266 27.7766C39.266 27.9798 39.3467 28.1746 39.4904 28.3183C39.634 28.4619 39.8288 28.5426 40.032 28.5426C40.2351 28.5426 40.4299 28.4619 40.5736 28.3183C40.7172 28.1746 40.7979 27.9798 40.7979 27.7766C40.7979 27.5735 40.7172 27.3787 40.5736 27.235C40.4299 27.0914 40.2351 27.0107 40.032 27.0107ZM30.0745 14.7554C31.6997 14.7554 33.2583 15.401 34.4074 16.5501C35.5566 17.6993 36.2022 19.2579 36.2022 20.883C36.2022 22.5082 35.5566 24.0668 34.4074 25.2159C33.2583 26.3651 31.6997 27.0107 30.0745 27.0107C28.4494 27.0107 26.8908 26.3651 25.7416 25.2159C24.5925 24.0668 23.9469 22.5082 23.9469 20.883C23.9469 19.2579 24.5925 17.6993 25.7416 16.5501C26.8908 15.401 28.4494 14.7554 30.0745 14.7554ZM30.0745 17.8192C29.2619 17.8192 28.4826 18.142 27.9081 18.7166C27.3335 19.2912 27.0107 20.0705 27.0107 20.883C27.0107 21.6956 27.3335 22.4749 27.9081 23.0495C28.4826 23.6241 29.2619 23.9469 30.0745 23.9469C30.8871 23.9469 31.6664 23.6241 32.241 23.0495C32.8156 22.4749 33.1384 21.6956 33.1384 20.883C33.1384 20.0705 32.8156 19.2912 32.241 18.7166C31.6664 18.142 30.8871 17.8192 30.0745 17.8192Z" fill="#101828"/>
</g>
</svg>
