<svg width="109" height="171" viewBox="0 0 109 171" fill="none" xmlns="http://www.w3.org/2000/svg">
<g clip-path="url(#clip0_10018_18984)">
<path d="M26.7584 72.773C28.0777 70.4838 29.8548 68.4665 30.7838 65.9627C31.3896 64.3317 31.6185 62.5719 31.8204 60.8264C33.5033 47.1344 19.7173 54.9032 33.8398 12.9688H74.9419C81.2695 23.5561 85.066 35.8174 85.8738 48.3219C86.2911 54.7888 86.2507 62.1284 90.7069 66.5779C92.5917 68.4522 95.2305 69.7541 96.0517 72.3438C96.7518 74.5614 95.8767 77.0079 96.2671 79.3114C96.7383 82.0154 98.825 83.9898 100.373 86.1788C102.595 89.3264 103.779 93.2752 103.699 97.2097C103.658 99.0983 103.214 101.201 101.72 102.232C100.804 102.875 99.6463 102.976 98.5558 103.076C74.538 105.05 50.2645 107.01 26.4756 103.018C25.2371 97.9966 23.985 92.9319 23.7023 87.7526C23.433 82.5734 24.2004 77.1939 26.7449 72.7587L26.7584 72.773Z" fill="#233339"/>
<path d="M86.6409 105.929C86.6409 105.929 86.6813 105.871 86.7351 105.757C86.8024 105.628 86.8832 105.457 87.0044 105.242C87.2332 104.784 87.5429 104.083 87.866 103.139C88.1622 102.194 88.4718 101.021 88.6334 99.6192C88.7949 98.2171 88.8219 96.6003 88.593 94.8262C88.3372 93.0665 87.8256 91.1636 86.8832 89.318C85.9677 87.4723 84.6888 85.6696 83.8137 83.5378C83.5983 83.0085 83.4233 82.4505 83.2886 81.8639C83.154 81.2916 83.1001 80.6907 83.0732 80.0755C83.0463 78.8594 83.2079 77.6146 83.4636 76.3842C83.7194 75.1395 84.0425 73.8948 84.3118 72.5928C84.5811 71.3052 84.7426 69.9603 84.7292 68.6011C84.6888 65.8684 84.0425 63.2788 83.329 60.8466C82.602 58.4143 81.8212 56.0966 81.2423 53.836C80.0575 49.3293 79.4248 45.1515 79.1151 41.6177C78.819 38.0838 78.792 35.2223 78.8459 33.2336C78.8728 32.2464 78.8997 31.4738 78.9267 30.9588C78.9267 30.7012 78.9401 30.5152 78.9536 30.3722C78.9536 30.2434 78.9536 30.1719 78.9536 30.1719C78.9536 30.1719 78.9536 30.2434 78.9267 30.3722C78.9267 30.5152 78.8997 30.7155 78.8863 30.9588C78.8459 31.4738 78.8055 32.2464 78.7651 33.2336C78.6978 35.2223 78.6843 38.0981 78.9671 41.632C79.2632 45.1659 79.8825 49.3579 81.0538 53.8933C81.6327 56.1538 82.4135 58.4859 83.1405 60.9181C83.8541 63.3503 84.4868 65.9256 84.5272 68.6154C84.5945 71.3195 83.7868 73.8518 83.2752 76.3413C83.0194 77.586 82.8444 78.8451 82.8847 80.0898C82.9117 80.705 82.979 81.3202 83.1136 81.9068C83.2482 82.4934 83.4367 83.0657 83.6521 83.6094C84.5407 85.7841 85.8331 87.5725 86.7486 89.4038C87.6775 91.2351 88.1891 93.1094 88.4584 94.8549C88.7007 96.6003 88.6872 98.2171 88.5257 99.6049C88.3776 100.993 88.0814 102.18 87.7987 103.11C87.489 104.04 87.2063 104.755 86.9774 105.213C86.8697 105.442 86.789 105.614 86.7217 105.743C86.6678 105.857 86.6409 105.929 86.6409 105.929Z" fill="#405B66"/>
<path d="M32.0623 23.4619C32.5335 15.7932 37.3398 6.39337 44.5289 7.22319L61.169 11.73C66.5003 13.175 70.068 17.9679 70.4449 23.8053C70.4584 24.0914 70.4853 23.748 70.4853 23.9626L67.685 69.0161L54.276 96.0854L43.2634 71.1479C43.2634 67.4137 43.2634 61.7624 43.2634 61.791C43.2634 61.791 34.0414 60.1456 32.17 47.355C31.2276 40.9883 31.5507 32.0033 32.0758 23.4905L32.0623 23.4619Z" fill="#F8B898"/>
<path d="M36.909 34.3989C36.8821 35.2717 37.5418 36.0013 38.3899 36.0586C39.2381 36.1158 39.9516 35.4433 39.9785 34.5849C40.0055 33.7122 39.3458 32.9825 38.4976 32.9253C37.6495 32.868 36.9359 33.5405 36.909 34.3989Z" fill="#233339"/>
<path d="M33.866 28.4686C34.0545 28.6832 35.2257 27.7675 36.8817 27.7818C38.5376 27.7675 39.7627 28.6689 39.9377 28.4543C40.032 28.3541 39.83 27.9678 39.305 27.5672C38.7799 27.1523 37.8914 26.7517 36.8547 26.766C35.8181 26.766 34.9565 27.1666 34.4449 27.5815C33.9333 27.9964 33.7583 28.3827 33.8525 28.4829L33.866 28.4686Z" fill="#233339"/>
<path d="M52.0281 34.7817C52.0012 35.6402 52.6609 36.3841 53.5091 36.4414C54.3572 36.4986 55.0707 35.8262 55.0977 34.9677C55.1246 34.095 54.4649 33.3653 53.6168 33.3081C52.7686 33.2509 52.0551 33.9233 52.0281 34.7817Z" fill="#233339"/>
<path d="M49.6316 28.4686C49.8201 28.6832 50.9913 27.7675 52.6473 27.7818C54.3032 27.7675 55.5283 28.6689 55.7033 28.4543C55.7976 28.3541 55.5957 27.9678 55.0706 27.5672C54.5455 27.1523 53.657 26.7517 52.6204 26.766C51.5837 26.766 50.7221 27.1666 50.2105 27.5815C49.6989 27.9964 49.5239 28.3827 49.6181 28.4829L49.6316 28.4686Z" fill="#233339"/>
<path d="M44.4483 42.3182C44.4483 42.218 43.4251 42.032 41.7557 41.7888C41.3384 41.7459 40.9345 41.6457 40.8672 41.3453C40.7729 41.0162 40.9479 40.5298 41.1499 40.0147C41.5538 38.9274 41.9711 37.7828 42.4154 36.581C44.1656 31.7022 45.4311 27.6819 45.2561 27.6103C45.0676 27.5388 43.5059 31.4304 41.7557 36.3091C41.3384 37.5109 40.9345 38.6555 40.5441 39.7572C40.3825 40.2722 40.0998 40.8445 40.3152 41.5313C40.4229 41.8747 40.7325 42.1179 41.0153 42.1894C41.2845 42.2753 41.5268 42.2896 41.7288 42.3039C43.4116 42.404 44.4618 42.4183 44.4618 42.3039L44.4483 42.3182Z" fill="#233339"/>
<path d="M59.2035 57.2188C59.2035 57.2188 55.2858 66.0034 43.25 64.773V61.7684C43.25 61.7684 51.1796 62.3264 59.2035 57.2188Z" fill="#F29066"/>
<path d="M50.1564 22.094C50.3179 22.5804 51.9738 22.3515 53.926 22.609C55.8781 22.8236 57.4532 23.4245 57.709 22.9953C57.8302 22.795 57.5475 22.3372 56.9147 21.8651C56.282 21.3929 55.2857 20.9637 54.1144 20.8206C52.9432 20.6776 51.8796 20.8779 51.1661 21.1783C50.4525 21.4788 50.0891 21.8651 50.1564 22.094Z" fill="#233339"/>
<path d="M34.4046 23.0688C34.7007 23.4694 35.8451 23.0688 37.2183 23.0402C38.5915 22.9687 39.7628 23.3121 40.032 22.8971C40.1532 22.6968 39.9647 22.2962 39.4531 21.9099C38.955 21.538 38.1203 21.2232 37.1644 21.2518C36.222 21.2804 35.4008 21.6381 34.9161 22.053C34.4315 22.4679 34.2699 22.8828 34.3911 23.0688H34.4046Z" fill="#233339"/>
<path d="M48.5278 45.6716C49.1471 46.5443 49.3491 47.7318 49.0394 48.7763C48.7298 49.8207 47.9085 50.6791 46.9257 50.9939C46.5353 51.1226 46.1045 51.1656 45.7141 51.0082C45.041 50.7364 44.7044 49.9495 44.4351 49.2341C44.2063 48.6332 43.9908 48.0466 43.762 47.4457C43.6812 47.2454 43.6139 47.0165 43.6947 46.8162C43.7889 46.6016 44.0312 46.53 44.2332 46.4728C45.6199 46.1151 47.0065 45.7574 48.3932 45.4141" fill="#F29066"/>
<path d="M45.8079 50.8075C45.8079 50.8075 46.5483 50.9363 47.6927 50.55C48.2581 50.3497 48.9447 49.9205 49.3486 49.1193C49.5506 48.733 49.6448 48.2036 49.6044 47.7458C49.5775 47.2736 49.4698 46.7872 49.2813 46.3294C49.0928 45.8858 48.8101 45.4995 48.5004 45.1848L48.3927 45.0703L48.2581 45.1275C45.4982 46.1577 43.3442 46.687 43.3711 46.8015C43.3846 46.9303 45.6059 46.6155 48.4197 45.614L48.1773 45.5568C48.4466 45.8286 48.6755 46.172 48.837 46.544C49.1467 47.3309 49.2813 48.2465 48.9582 48.876C48.6485 49.5342 48.0831 49.9491 47.585 50.178C46.5483 50.6215 45.8079 50.6787 45.8213 50.7789L45.8079 50.8075Z" fill="#233339"/>
<path d="M50.1298 0.174281C57.4267 -0.526773 64.6024 0.789492 70.1087 5.91148C75.1708 10.6186 77.5402 15.1253 78.3345 22.4363C78.6038 24.9401 77.8903 30.5485 77.0556 32.8949C76.2209 35.2556 73.8918 41.2503 71.7108 42.2375C69.5298 43.239 68.2374 39.2759 66.5815 37.4589C65.5717 36.3573 65.0602 34.855 64.562 33.41C62.4484 27.3008 59.9712 21.2059 56.04 16.2127C52.0954 11.2338 46.4814 7.41374 40.3693 7.11329L36.4785 7.25636C41.1771 1.86253 45.3236 0.64642 50.1298 0.174281Z" fill="#405B66"/>
<path d="M36.4786 6.99956C38.9289 4.35272 42.2407 2.73601 45.6334 1.84896C48.5683 1.09067 51.6647 0.847451 54.6266 1.3482C61.3041 1.3482 69.8934 11.3776 71.4686 18.288C72.2225 21.5786 71.9667 25.0267 71.5763 28.3889C71.3743 30.0914 71.132 31.8369 70.4319 33.3821C69.7319 34.9416 68.4933 36.3008 66.9181 36.7014C65.343 37.102 63.4582 36.3008 62.8927 34.684C62.4754 33.4679 62.812 32.0801 62.4081 30.8497C61.4926 28.0598 57.4538 27.8738 56.1613 25.2556C55.2189 23.367 56.0536 20.8633 55.0304 19.0319C54.0342 17.2292 51.7859 16.9002 49.9415 16.1419C46.8989 14.8971 44.5429 11.9785 43.7755 8.63058C43.7216 8.63058 43.6813 8.63058 43.6274 8.63058C36.344 8.84519 32.8975 21.1351 31.982 24.5402C31.0935 19.6901 33.2072 10.4905 36.4652 6.97095L36.4786 6.99956Z" fill="#233339"/>
<path d="M66.8638 9.78652C66.8638 9.78652 66.783 9.78652 66.6349 9.81514C66.4599 9.84375 66.2445 9.88667 65.9752 9.9439C65.6925 10.0011 65.3425 10.0727 64.9251 10.1299C64.5212 10.2014 64.05 10.2873 63.5384 10.3445C62.5018 10.5019 61.2767 10.6163 59.9035 10.6879C58.5303 10.7451 57.0224 10.7737 55.4338 10.6879C53.8452 10.602 52.3373 10.4447 50.9776 10.2444C49.6178 10.0297 48.3927 9.80083 47.383 9.5433C46.8714 9.42884 46.4137 9.30008 46.0233 9.18562C45.6194 9.08547 45.2828 8.98532 45.0001 8.89947C44.7308 8.82794 44.5289 8.7564 44.3539 8.71348C44.2058 8.67056 44.125 8.65625 44.125 8.65625C44.125 8.65625 44.1923 8.69917 44.3404 8.7564C44.502 8.81363 44.7174 8.89947 44.9732 8.98532C45.2424 9.08547 45.5925 9.19992 45.9963 9.31438C46.4002 9.42884 46.8445 9.57191 47.3561 9.70068C48.3658 9.97252 49.5909 10.23 50.9507 10.459C52.3239 10.6736 53.8317 10.8453 55.4203 10.9168C57.009 10.9883 58.5303 10.9597 59.9169 10.8882C61.2901 10.788 62.5287 10.6593 63.5654 10.4876C64.077 10.416 64.5482 10.3159 64.952 10.2444C65.3559 10.1728 65.706 10.087 65.9887 10.0154C66.2579 9.9439 66.4733 9.88667 66.6484 9.84375C66.7964 9.80083 66.8772 9.77221 66.8772 9.77221L66.8638 9.78652Z" fill="#405B66"/>
<path d="M70.0137 14.277C70.0137 14.277 69.9194 14.2913 69.7309 14.3486C69.529 14.4058 69.2732 14.4916 68.9501 14.5918C68.7751 14.649 68.5866 14.7063 68.3846 14.7778C68.1827 14.835 67.9538 14.8923 67.7115 14.9495C67.2268 15.0639 66.6749 15.2356 66.0556 15.3215C65.7459 15.3787 65.4228 15.4359 65.0863 15.4932C64.7497 15.5504 64.3862 15.5647 64.0227 15.6219C63.2822 15.7221 62.5014 15.7364 61.6667 15.7507C60.0108 15.7507 58.1798 15.579 56.295 15.1927C54.4102 14.7778 52.6735 14.1626 51.1387 13.4758C50.7618 13.2898 50.3848 13.1182 50.0348 12.9465C49.6713 12.7891 49.3482 12.5745 49.0116 12.3885C48.6885 12.2025 48.3654 12.0451 48.0692 11.8448C47.773 11.6588 47.4903 11.4728 47.221 11.3011C46.6691 10.9721 46.2248 10.6001 45.8074 10.2996C45.6055 10.1423 45.4036 10.0135 45.242 9.87041C45.0804 9.72734 44.9189 9.59858 44.7843 9.48412C44.515 9.26951 44.3131 9.08352 44.138 8.95475C43.99 8.84029 43.9092 8.76876 43.9092 8.78306C43.9092 8.78306 43.9765 8.8546 44.1111 8.99767C44.2727 9.14074 44.4746 9.32674 44.7304 9.55565C44.865 9.68442 45.0131 9.81318 45.1747 9.95626C45.3362 10.0993 45.5382 10.2424 45.7401 10.3998C46.144 10.7145 46.6018 11.0865 47.1403 11.4299C47.4095 11.6159 47.6922 11.8019 47.975 11.9879C48.2711 12.1882 48.5943 12.3456 48.9174 12.5459C49.2539 12.7319 49.577 12.9465 49.9405 13.1182C50.304 13.2898 50.6675 13.4758 51.058 13.6618C52.6062 14.3486 54.3564 14.9781 56.2412 15.4073C58.1394 15.8079 59.9838 15.9653 61.6532 15.951C62.4879 15.9224 63.2822 15.9081 64.0227 15.7936C64.3862 15.7507 64.7497 15.7221 65.0863 15.6505C65.4228 15.579 65.7459 15.5218 66.069 15.4645C66.7018 15.3644 67.2403 15.1784 67.7384 15.0496C67.9808 14.9781 68.2096 14.9209 68.4116 14.8636C68.6135 14.7921 68.802 14.7206 68.9636 14.6633C69.2867 14.5489 69.5425 14.4487 69.7309 14.3772C69.906 14.3057 70.0002 14.277 70.0002 14.2627L70.0137 14.277Z" fill="#405B66"/>
<path d="M66.6622 35.7555C66.7026 34.8827 67.7527 32.8797 68.574 32.7939C70.7549 32.5506 74.6457 32.9512 74.3899 38.8029C74.0533 46.7863 66.5815 44.769 66.568 44.5401C66.568 44.3541 66.5007 38.7743 66.6488 35.7555H66.6622Z" fill="#F8B898"/>
<path d="M69.0048 41.6253C69.0048 41.6253 69.126 41.7255 69.3414 41.8542C69.5568 41.9687 69.9203 42.0545 70.3242 41.9258C71.132 41.6539 71.859 40.352 71.9532 38.907C72.0071 38.1773 71.8859 37.4762 71.6705 36.9039C71.4686 36.303 71.132 35.8881 70.7281 35.788C70.3377 35.6735 70.0415 35.9167 69.9338 36.1313C69.8261 36.346 69.8665 36.5176 69.8261 36.5176C69.7992 36.532 69.6645 36.3746 69.7453 36.0455C69.7857 35.8881 69.8799 35.7021 70.0684 35.5591C70.2569 35.416 70.5262 35.3444 70.7954 35.3874C71.3743 35.4589 71.8724 36.0455 72.1148 36.6893C72.384 37.3332 72.5321 38.1201 72.4783 38.9356C72.3571 40.538 71.5224 42.0116 70.4184 42.2978C69.8799 42.4122 69.4491 42.2262 69.2337 42.0259C69.0049 41.8113 68.9779 41.6396 69.0048 41.6253Z" fill="#F29066"/>
<path d="M70.4721 43.6734C71.3742 44.0311 71.8992 45.2186 71.5896 46.1915C71.2799 47.1644 70.1894 47.7653 69.274 47.4792C68.3585 47.193 67.7392 46.0627 67.9815 45.0612C68.2239 44.074 69.2605 43.3873 70.2029 43.6019" fill="#E0E0E0"/>
<path d="M35.0515 69.3302L45.3102 66.9695L67.6855 66.4688L76.4902 69.6163C76.4902 69.6163 68.7894 78.3581 62.2869 79.2451C55.9324 80.1178 45.8218 80.4469 41.8233 77.7858C37.8249 75.1246 35.0515 69.3302 35.0515 69.3302Z" fill="#F8B898"/>
<path d="M88.7549 131.055L85.47 106.332L106.27 109.222L100.4 90.1073C98.9194 85.0139 96.0383 77.9319 93.1707 75.5282C89.3607 72.3234 82.3197 69.0041 73.6496 68.0312C73.6496 68.0312 67.6856 76.9876 53.3342 76.3294C38.9828 75.6713 36.0344 68.532 36.0344 68.532C35.5497 68.8611 21.7907 72.5094 17.3749 76.4868C12.9591 80.4642 9.18945 94.3995 9.18945 94.3995L25.8295 127.621C25.8295 127.621 16.2171 148.924 16.0286 171H97.6404C97.6404 171 93.2111 156.536 90.9898 144.117C90.1012 139.181 88.7549 131.055 88.7549 131.055Z" fill="#405B66"/>
<path d="M77.446 69.3034C77.446 69.3034 77.446 69.3606 77.4191 69.4464C77.3922 69.5466 77.3518 69.6897 77.298 69.8614C77.2037 70.2333 77.0018 70.7627 76.7325 71.4351C76.4229 72.0933 76.0324 72.8945 75.4535 73.7243C74.8881 74.5684 74.1476 75.4698 73.2187 76.3425C71.3878 78.088 68.8029 79.7333 65.6526 80.6776C64.0774 81.1354 62.3811 81.4502 60.6175 81.5933C58.8538 81.7363 57.0094 81.722 55.1381 81.5933C53.2668 81.4645 51.4358 81.2213 49.6856 80.9495C47.9355 80.6776 46.2526 80.3772 44.664 80.0052C41.4868 79.2612 38.6999 78.1595 36.5863 76.786C34.4726 75.4269 33.0321 73.9103 32.1974 72.7514C31.3492 71.5925 31.0261 70.8486 31.0261 70.8486C31.0261 70.8486 31.053 70.8915 31.1069 70.9773C31.1608 71.0775 31.2415 71.1919 31.3223 71.3493C31.5242 71.6641 31.8204 72.1362 32.2512 72.7085C33.1129 73.8388 34.5534 75.3267 36.6536 76.6573C38.7538 78.0022 41.5271 79.0895 44.6909 79.8192C46.2795 80.1912 47.9624 80.4773 49.6991 80.7492C51.4493 81.021 53.2668 81.2499 55.1246 81.393C56.996 81.5217 58.8135 81.536 60.5771 81.393C62.3273 81.2499 64.0101 80.9495 65.5718 80.4916C68.6952 79.5616 71.2531 77.9449 73.0841 76.2281C74.013 75.3696 74.74 74.4826 75.3189 73.6528C75.9113 72.8373 76.3017 72.0361 76.6248 71.3922C76.9075 70.7341 77.1229 70.2047 77.2306 69.847C77.2845 69.6754 77.3383 69.5466 77.3653 69.4321C77.3922 69.3463 77.4191 69.2891 77.4191 69.2891L77.446 69.3034Z" fill="#233339"/>
<path d="M71.6035 132.844C71.6035 132.844 71.5766 132.872 71.5227 132.901C71.4554 132.944 71.3747 132.987 71.267 133.044C71.0246 133.173 70.7015 133.345 70.2842 133.573C69.436 134.031 68.1974 134.661 66.6357 135.419C63.5393 136.921 59.1908 138.853 54.2768 140.655C49.3629 142.458 44.8259 143.789 41.514 144.633C39.8581 145.062 38.5118 145.377 37.5829 145.577C37.1252 145.677 36.7751 145.749 36.5059 145.806C36.3982 145.82 36.3039 145.849 36.2231 145.863C36.1558 145.863 36.1289 145.863 36.1289 145.863C36.1289 145.863 36.1558 145.849 36.2231 145.835C36.3039 145.82 36.3847 145.792 36.5059 145.763C36.7617 145.692 37.1252 145.606 37.5694 145.491C38.4984 145.262 39.8312 144.919 41.4871 144.476C44.7855 143.588 49.309 142.244 54.223 140.441C59.1235 138.638 63.472 136.735 66.5819 135.276C68.1436 134.546 69.3956 133.931 70.2438 133.502C70.6611 133.302 70.9977 133.13 71.24 133.015C71.3477 132.973 71.4285 132.93 71.4958 132.901C71.5497 132.872 71.5901 132.858 71.5901 132.872L71.6035 132.844Z" fill="#233339"/>
<path d="M72.9496 125.086C72.9496 125.086 72.8553 125.157 72.6534 125.286C72.438 125.415 72.1418 125.601 71.7783 125.83C71.0244 126.302 69.9069 126.946 68.5203 127.733C65.7469 129.292 61.8427 131.324 57.4134 133.284C52.9841 135.244 48.8914 136.761 45.8892 137.762C44.3948 138.263 43.1697 138.649 42.3216 138.892C41.9177 139.007 41.5811 139.107 41.3522 139.179C41.1234 139.236 41.0157 139.264 41.0022 139.264C41.0022 139.264 41.1099 139.207 41.3388 139.136C41.5811 139.05 41.9042 138.95 42.3081 138.807C43.1428 138.535 44.3544 138.134 45.8488 137.605C48.8241 136.56 52.9168 135.029 57.3326 133.069C61.7485 131.109 65.6527 129.106 68.4395 127.59C69.8396 126.831 70.957 126.202 71.7379 125.758C72.1149 125.544 72.411 125.386 72.6264 125.258C72.8284 125.143 72.9361 125.086 72.9496 125.1V125.086Z" fill="#233339"/>
<path d="M38.1749 71.5201C38.1749 71.5201 37.1248 72.1782 35.7651 72.8506C34.4053 73.5374 33.2879 74.0381 33.261 73.9809C33.2341 73.9237 34.3111 73.3228 35.6708 72.6503C37.0306 71.9636 38.148 71.4628 38.1749 71.5201Z" fill="#233339"/>
<path d="M38.1348 77.4877C38.1348 77.4877 38.8348 76.5148 39.9119 75.5276C40.9754 74.5404 41.9582 73.8966 41.9851 73.9395C42.0255 73.9968 41.1101 74.7264 40.0465 75.6993C38.9829 76.6722 38.1752 77.5306 38.1348 77.4734V77.4877Z" fill="#233339"/>
<path d="M43.4385 79.8914C43.4385 79.8914 43.8289 78.8184 44.4213 77.545C45.0136 76.286 45.5387 75.2845 45.5925 75.3131C45.6464 75.3417 45.2021 76.3861 44.6097 77.6595C44.0174 78.9185 43.4923 79.92 43.4385 79.8914Z" fill="#233339"/>
<path d="M49.834 80.8167C49.834 80.8167 49.834 79.758 50.0763 78.4703C50.3052 77.1827 50.6283 76.1812 50.6821 76.1955C50.736 76.2098 50.5206 77.2399 50.2917 78.5132C50.0628 79.7866 49.9013 80.831 49.834 80.8167Z" fill="#233339"/>
<path d="M55.1113 81.3358C55.1113 81.3358 55.0306 80.2485 55.0575 78.9179C55.0844 77.573 55.1517 76.5 55.2191 76.5C55.2729 76.5 55.2998 77.5873 55.2729 78.9179C55.246 80.2485 55.1787 81.3358 55.1113 81.3358Z" fill="#233339"/>
<path d="M60.9276 80.745C60.9276 80.745 60.6045 79.7435 60.3487 78.4988C60.0929 77.2397 59.9179 76.2096 59.9852 76.1953C60.039 76.1953 60.3083 77.1968 60.5641 78.4416C60.8199 79.7006 60.9949 80.7307 60.9276 80.745Z" fill="#233339"/>
<path d="M65.9891 80.599C65.9891 80.599 65.8006 80.3129 65.5852 79.7978C65.3698 79.2828 65.1005 78.5674 64.8716 77.7519C64.6428 76.9364 64.4812 76.1781 64.4004 75.6201C64.3197 75.0621 64.2927 74.7188 64.3197 74.7188C64.387 74.7188 64.6158 76.0636 65.087 77.6803C65.5448 79.2971 66.0564 80.5704 66.0025 80.599H65.9891Z" fill="#233339"/>
<path d="M70.7687 78.0284C70.7687 78.0284 70.109 76.8981 69.2743 75.539C68.453 74.1655 67.7126 73.1067 67.7664 73.0638C67.8068 73.0209 68.6281 74.0367 69.4628 75.4245C70.2975 76.798 70.8225 78.0141 70.7687 78.0427V78.0284Z" fill="#233339"/>
<path d="M75.3325 74.7101C75.3325 74.7101 74.4844 73.7944 73.5285 72.564C72.5861 71.3336 71.8456 70.3177 71.8995 70.2748C71.9399 70.2319 72.7477 71.1905 73.7035 72.4209C74.6459 73.6513 75.3864 74.6671 75.3325 74.7101Z" fill="#233339"/>
<path d="M32.4404 103.17C33.4367 99.6213 35.3753 96.4594 38.0141 94.0415C40.397 91.8668 43.0761 89.4775 43.7627 89.0912C45.0821 88.3329 46.9938 88.1183 46.9938 88.1183C46.9938 88.1183 63.2704 85.3284 66.6092 85.543C69.9479 85.7576 69.2344 89.1914 66.0976 89.3058C62.9607 89.4203 56.0947 91.6665 56.0947 91.6665C56.0947 91.6665 57.414 92.2102 57.3063 94.0415C57.1986 95.8728 56.1889 96.0875 56.1889 96.0875C56.1889 96.0875 56.9024 97.7042 56.7947 98.6628C56.687 99.6356 55.785 100.909 55.785 100.909C55.785 100.909 56.7947 102.311 56.2966 103.613C55.785 104.901 53.9675 106.517 53.9675 106.517C53.9675 106.517 46.6707 110.81 45.2167 110.709C43.7627 110.595 42.0394 110.709 42.0394 110.709L40.6258 112.212L32.4404 103.184V103.17Z" fill="#F8B898"/>
<path d="M56.1077 91.582C56.1077 91.582 55.4884 91.7537 54.7075 91.8109C53.9267 91.8681 53.2939 91.8681 53.2939 91.8109C53.2939 91.7537 53.9132 91.6392 54.6941 91.582C55.4749 91.5248 56.1077 91.5248 56.1077 91.582Z" fill="#F29066"/>
<path d="M56.2962 96.0584C56.2962 96.0584 55.6769 96.2301 54.923 96.3875C54.1691 96.5305 53.5498 96.6736 53.5364 96.6164C53.5229 96.5591 54.1153 96.3159 54.8826 96.1585C55.65 96.0012 56.2962 96.0012 56.2962 96.0584Z" fill="#F29066"/>
<path d="M56.2429 100.264C56.2429 100.264 55.5697 100.522 54.735 100.808C53.9003 101.094 53.2406 101.351 53.2137 101.28C53.1868 101.223 53.8195 100.865 54.6677 100.579C55.5159 100.293 56.2294 100.193 56.2294 100.25L56.2429 100.264Z" fill="#F29066"/>
<g opacity="0.3">
<path d="M19.3006 152.929C22.2489 152.314 25.0896 151.155 27.6745 149.524C32.3595 146.577 36.0888 142.17 39.0506 137.32C42.0124 132.47 44.2607 127.176 46.4821 121.911L43.8164 120.266L21.4008 139.323L19.2871 147.864V152.915L19.3006 152.929Z" fill="#233339"/>
</g>
<path d="M9.18984 94.6237C9.18984 94.6237 2.35071 118.231 1.56987 121.564C0.789023 124.883 -0.463023 134.197 0.789023 139.019C2.04107 143.841 6.77999 152.496 13.3095 151.824C19.8255 151.152 23.7297 147.675 28.8187 143.297C35.6713 137.402 45.7819 118.231 45.2299 118.073L32.7095 99.1162L20.5121 114.268L9.20331 94.6094L9.18984 94.6237Z" fill="#405B66"/>
<path d="M13.2685 122.773C13.2685 122.773 13.2955 122.73 13.3493 122.659C13.4166 122.573 13.4974 122.473 13.6186 122.316C13.8609 122.015 14.2109 121.586 14.6687 121.014C15.5976 119.883 16.9439 118.224 18.6402 116.135C22.0598 111.957 26.9064 106.034 32.6281 99.0377L32.7089 98.9375L32.7762 99.052C36.4112 104.546 40.477 110.698 44.7716 117.194C44.9601 117.465 45.1351 117.752 45.3101 118.009L45.3505 118.066L45.3236 118.123C42.2541 124.633 38.9691 130.671 35.3611 135.678C33.5705 138.182 31.6857 140.428 29.8009 142.389C27.9296 144.363 26.0986 146.094 24.2811 147.496C20.6596 150.315 17.1054 151.588 14.6148 151.831C14.3052 151.874 14.009 151.903 13.7397 151.931C13.457 151.931 13.2012 151.946 12.9589 151.96C12.7166 151.96 12.5011 151.96 12.2992 151.974C12.0973 151.974 11.9088 151.946 11.7472 151.946C11.4241 151.917 11.1818 151.903 11.0068 151.889C10.8452 151.889 10.751 151.86 10.751 151.86C10.751 151.86 10.8318 151.86 11.0068 151.86C11.1818 151.86 11.4241 151.874 11.7472 151.889C11.9088 151.889 12.0973 151.903 12.2992 151.917C12.5011 151.917 12.7166 151.903 12.9589 151.889C13.2012 151.889 13.457 151.874 13.7263 151.86C13.9955 151.831 14.2917 151.788 14.6014 151.745C17.0785 151.474 20.5923 150.186 24.1869 147.367C25.9909 145.965 27.8084 144.234 29.6797 142.26C31.5511 140.3 33.4224 138.068 35.1995 135.564C38.7806 130.556 42.0521 124.533 45.1216 118.023V118.138C44.9601 117.88 44.7716 117.608 44.5966 117.322C40.3154 110.827 36.2496 104.66 32.6281 99.1664H32.7897C27.041 106.148 22.1809 112.043 18.7344 116.221C17.0247 118.295 15.6649 119.926 14.7225 121.056C14.2648 121.614 13.9013 122.044 13.659 122.33C13.5378 122.473 13.4435 122.573 13.3762 122.659C13.3089 122.73 13.282 122.759 13.282 122.759L13.2685 122.773Z" fill="#233339"/>
<path d="M8.07227 122.108C8.07227 122.108 8.16651 121.936 8.35499 121.65C8.44923 121.507 8.58385 121.35 8.74541 121.164C8.8935 120.978 9.08198 120.763 9.29739 120.548C10.1321 119.661 11.4514 118.603 13.0266 117.687C14.6152 116.771 16.15 116.156 17.2943 115.87C17.577 115.784 17.8463 115.727 18.0752 115.698C18.304 115.655 18.506 115.612 18.6675 115.612C18.9906 115.584 19.1791 115.569 19.1791 115.584C19.1791 115.627 18.4521 115.698 17.3347 116.027C16.2038 116.356 14.696 116.972 13.1343 117.887C11.5726 118.803 10.2667 119.819 9.40509 120.677C8.54347 121.507 8.11265 122.136 8.07227 122.108Z" fill="#233339"/>
<path d="M21.5758 112.655C21.5758 112.655 21.4143 112.455 21.1719 112.069C20.9161 111.682 20.5796 111.11 20.1622 110.395C19.3275 108.978 18.237 106.961 17.1331 104.686C16.0291 102.411 15.1136 100.308 14.4674 98.7772C14.1443 98.0189 13.8885 97.3894 13.7135 96.9602C13.5385 96.531 13.4577 96.2877 13.4712 96.2734C13.4846 96.2734 13.5923 96.5023 13.7943 96.9173C13.9962 97.3751 14.2789 97.976 14.602 98.7057C15.2887 100.222 16.2176 102.297 17.3215 104.572C18.4255 106.846 19.4891 108.864 20.2834 110.295C20.6738 110.981 20.9969 111.568 21.2392 111.997C21.4681 112.398 21.5893 112.627 21.5758 112.641V112.655Z" fill="#233339"/>
<path d="M87.1658 52.9219L91.824 58.9738C92.3894 59.632 92.726 60.4618 92.7664 61.3488C92.901 63.5808 93.1164 67.83 92.8741 68.4881C92.551 69.3895 88.6871 79.519 88.7814 80.9354C88.8756 82.3518 89.3064 85.0273 89.3064 85.0273L77.5264 88.5469C77.5264 88.5469 76.6379 83.5536 76.2205 80.964C75.7897 78.3744 76.1667 71.5928 76.1667 71.5928C76.1667 71.5928 75.9243 69.7329 75.7628 69.1892C75.6012 68.6455 74.6992 67.1719 74.8742 65.8127C75.0492 64.4535 76.1532 64.01 76.1532 64.01L77.0148 63.7954C77.0148 63.7954 77.0956 63.0228 77.8361 62.5363C78.5765 62.0499 80.2863 62.1786 80.2863 62.1786C80.2863 62.1786 80.4344 60.5476 81.7134 60.0755C82.9923 59.6034 83.8943 60.4189 83.8943 60.4189C83.8943 60.4189 83.854 58.7163 84.8771 58.3729C85.9003 58.0296 86.8696 58.6448 86.8696 58.6448C86.8696 58.6448 85.7253 56.4128 86.0484 54.6244C86.358 52.9219 87.1524 52.9219 87.1524 52.9219H87.1658Z" fill="#F8B898"/>
<path d="M79.6671 67.2739C79.6671 67.2739 79.6132 67.0021 79.4921 66.6158C79.3574 66.2295 79.0882 65.7144 78.6708 65.2566C78.2535 64.7988 77.7957 64.4554 77.4861 64.1979C77.163 63.9403 76.961 63.783 76.9745 63.7543C76.988 63.7257 77.2168 63.8402 77.5669 64.0548C77.9169 64.2694 78.3881 64.5985 78.8324 65.0849C79.2767 65.5714 79.5459 66.1293 79.6402 66.5586C79.7479 66.9878 79.694 67.2596 79.6805 67.2596L79.6671 67.2739Z" fill="#F29066"/>
<path d="M82.5614 64.6701C82.5614 64.6701 82.1037 64.1121 81.5113 63.4969C80.9189 62.8674 80.3535 62.4382 80.3939 62.381C80.4208 62.3237 81.0536 62.6814 81.6594 63.3252C82.2787 63.9691 82.6153 64.6415 82.5614 64.6701Z" fill="#F29066"/>
<path d="M85.6448 62.9929C85.6448 62.9929 85.214 62.392 84.7158 61.648C84.2177 60.8898 83.7869 60.3032 83.8407 60.2602C83.8811 60.2173 84.3927 60.7467 84.9043 61.5193C85.4159 62.2776 85.7121 62.9786 85.6582 63.0072L85.6448 62.9929Z" fill="#F29066"/>
<path d="M90.7606 63.522C90.7606 63.522 90.3701 62.0769 89.2392 60.7034C88.1353 59.3299 86.8429 58.7004 86.8832 58.6289C86.8832 58.6003 87.2198 58.729 87.7179 59.0295C88.2026 59.3299 88.8488 59.845 89.4143 60.5461C89.9797 61.2471 90.3567 61.9911 90.5586 62.5634C90.7606 63.1357 90.8009 63.5077 90.774 63.5077L90.7606 63.522Z" fill="#F29066"/>
<path d="M83.7596 66.1405C83.7596 66.1405 83.046 66.1262 82.3729 66.6127C81.6863 67.0848 81.4978 67.8288 81.4305 67.8002C81.4036 67.8002 81.4036 67.5999 81.5247 67.328C81.6324 67.0419 81.8748 66.6985 82.2517 66.4267C82.6152 66.1691 83.0191 66.0547 83.3018 66.0547C83.5846 66.0547 83.7596 66.1119 83.7596 66.1405Z" fill="#F29066"/>
<path d="M87.6508 64.0213C87.6508 64.0213 87.4758 63.9927 87.2065 63.9641C86.9373 63.9355 86.5603 63.9641 86.1833 64.1215C85.8064 64.2932 85.5371 64.5793 85.3756 64.8082C85.214 65.0371 85.1332 65.2088 85.1063 65.1945C85.0794 65.1945 85.1063 64.9942 85.2409 64.7224C85.389 64.4506 85.6717 64.1072 86.0891 63.9212C86.5064 63.7352 86.9373 63.7352 87.22 63.821C87.5027 63.8926 87.6508 64.0213 87.6373 64.0356L87.6508 64.0213Z" fill="#F29066"/>
<path d="M80.0167 68.0325C80.0167 68.0325 79.4378 68.0325 78.8992 68.4331C78.3473 68.8337 78.2261 69.4203 78.1588 69.406C78.1319 69.406 78.1184 69.2486 78.1992 69.0054C78.28 68.7622 78.4684 68.4617 78.7646 68.2471C79.0608 68.0325 79.3974 67.9323 79.6262 67.9467C79.8686 67.9467 80.0032 68.0182 79.9897 68.0468L80.0167 68.0325Z" fill="#F29066"/>
<path d="M76.8528 84.711C76.8528 84.711 78.8991 94.9407 79.303 96.8722C79.7069 98.8036 83.4496 120.636 83.4496 120.636L83.6111 121.91L92.8063 127.976C93.0351 128.019 95.9027 119.821 95.9027 119.821L98.7299 110.335C98.7299 110.335 96.1181 104.255 95.0815 101.45C94.0448 98.6463 88.4174 80.0469 88.4174 80.0469L82.4803 84.6967H76.8528V84.711Z" fill="#F8B898"/>
<path d="M91.1843 84.9389L88.5999 85.6328L89.4441 89.1839L92.0286 88.4899L91.1843 84.9389Z" fill="#EC655B"/>
<path d="M92.0268 88.4933C92.0268 88.4933 91.9056 88.107 91.744 87.4918C91.5825 86.8766 91.3536 86.0039 91.0978 84.9737L91.219 85.0453C90.4381 85.2599 89.5631 85.5031 88.6341 85.7463C88.6207 85.7749 88.7822 85.4745 88.7149 85.6033V85.6462V85.7034L88.7553 85.8322L88.8091 86.0754C88.8495 86.2328 88.8899 86.3902 88.9168 86.5475C88.9842 86.8623 89.0649 87.1771 89.1322 87.4632C89.2669 88.0498 89.4015 88.6078 89.5092 89.1228L89.4015 89.0513C90.1689 88.851 90.8016 88.7079 91.2594 88.6078C91.7171 88.5076 91.9864 88.4504 91.9998 88.4504C92.0133 88.4504 91.771 88.5362 91.3267 88.6793C90.8824 88.8224 90.2362 89.0084 89.4284 89.2373L89.3477 89.2659L89.3207 89.1658C89.1996 88.6507 89.0649 88.107 88.9168 87.5061C88.8495 87.2057 88.7688 86.9052 88.688 86.5905C88.6476 86.4331 88.6072 86.2757 88.5668 86.1183L88.513 85.8751L88.486 85.7463V85.6891L88.4591 85.6605V85.6319C88.3918 85.7606 88.5534 85.4602 88.5399 85.4888C89.4688 85.2456 90.3439 85.0167 91.1248 84.8021L91.219 84.7734L91.2459 84.8736C91.4882 85.9466 91.6902 86.8623 91.8114 87.4775C91.946 88.107 92.0133 88.4504 91.9864 88.4361L92.0268 88.4933Z" fill="#233339"/>
<path d="M90.2359 88.9479C90.2359 88.9479 90.0609 88.5473 89.8993 87.9321V87.8749L89.9263 87.832C90.034 87.7032 90.1417 87.5888 90.2494 87.46L90.2224 87.5601C90.182 87.4171 90.1551 87.274 90.1147 87.1166C90.0743 86.9449 90.034 86.7732 89.9936 86.6016L90.0474 86.6731L89.5762 86.4299L89.5358 86.4013V86.3583C89.4147 85.8004 89.3608 85.4141 89.4012 85.4141C89.4416 85.4141 89.5627 85.7574 89.7108 86.3154L89.657 86.2439L90.1282 86.4585H90.1686V86.53C90.209 86.7017 90.2494 86.8591 90.2897 87.0451C90.3301 87.2025 90.3571 87.3455 90.3974 87.4886V87.5458L90.3705 87.5888C90.2628 87.7032 90.1417 87.832 90.034 87.9464L90.0609 87.8463C90.1955 88.4758 90.2494 88.905 90.209 88.9193L90.2359 88.9479Z" fill="#233339"/>
<path d="M91.1382 88.7058C91.1382 88.7058 90.9632 88.3052 90.8017 87.69V87.6327L90.8286 87.5898C90.9363 87.461 91.044 87.3466 91.1517 87.2178L91.1248 87.318C91.0844 87.1749 91.0575 87.0318 91.0171 86.8744C90.9767 86.7028 90.9363 86.5311 90.8959 86.3594L90.9498 86.4309L90.4786 86.1877L90.4382 86.1591V86.1162C90.317 85.5582 90.2632 85.1719 90.3035 85.1719C90.3439 85.1719 90.4651 85.5153 90.6132 86.0732L90.5593 86.0017L91.0305 86.2163H91.0709V86.2878C91.1113 86.4595 91.1517 86.6169 91.1921 86.8029C91.2325 86.9603 91.2594 87.1034 91.2998 87.2464V87.3037L91.2729 87.3466C91.1652 87.461 91.044 87.5898 90.9363 87.7043L90.9632 87.6041C91.0978 88.2336 91.1517 88.6628 91.1113 88.6771L91.1382 88.7058Z" fill="#233339"/>
<path d="M86.6006 84.5156L88.4585 84.8161C88.7951 84.8876 89.0913 85.1165 89.2663 85.4456L87.9065 85.8319L86.3987 84.8018L86.5737 84.5156H86.6006Z" fill="#EC655B"/>
<path d="M86.6012 84.5112C86.6012 84.5112 86.5473 84.64 86.4666 84.826V84.7545C86.7627 84.9404 87.3147 85.2838 87.9879 85.7273H87.9071C88.2437 85.6129 88.6072 85.527 88.9841 85.4126C89.0784 85.384 89.1726 85.3554 89.2668 85.341L89.1995 85.5127C89.011 85.1551 88.6879 84.9404 88.3514 84.8975C88.0282 84.8403 87.7321 84.7831 87.4628 84.7258C86.9512 84.6257 86.6281 84.5398 86.6146 84.5112C86.6146 84.4826 86.9108 84.5112 87.4493 84.5685C87.7455 84.6114 88.0552 84.6543 88.3917 84.6972C88.7687 84.7258 89.1726 84.9834 89.388 85.3983L89.4553 85.527L89.3207 85.57C89.2264 85.5986 89.1322 85.6129 89.038 85.6415C88.661 85.7416 88.2975 85.8418 87.9609 85.9276H87.9205H87.8801C87.2205 85.4698 86.6954 85.0835 86.4127 84.8546L86.3723 84.826L86.3992 84.7831C86.5339 84.5971 86.6146 84.5112 86.6146 84.5255L86.6012 84.5112Z" fill="#233339"/>
<g opacity="0.3">
<path d="M88.2702 85.7161C87.9471 85.3012 87.5298 84.9149 87.0316 84.5715L86.6008 84.5L87.7048 85.5444L87.9202 85.802L88.2702 85.7018V85.7161Z" fill="black"/>
</g>
<path d="M88.5 91.0511L89.8328 89.9351C90.1021 89.6919 90.2501 89.3486 90.2636 88.9766L88.9039 89.3199L88.0422 90.9796L88.5 91.0511Z" fill="#EC655B"/>
<path d="M88.4995 91.0509C88.4995 91.0509 88.3379 91.0652 88.0283 91.0366H87.9475L87.9879 90.9508C88.1629 90.5788 88.4456 89.9779 88.8091 89.2625L88.8361 89.2196H88.8765C89.1726 89.1338 89.4823 89.0479 89.7919 88.9621C89.94 88.9191 90.0881 88.8762 90.2362 88.8476L90.3708 88.8047V88.9621C90.3708 89.4056 90.142 89.8062 89.8592 90.0351C89.6034 90.2354 89.3746 90.4214 89.1457 90.5931C88.7418 90.9079 88.4995 91.0795 88.4995 91.0509C88.4995 91.0223 88.7149 90.7934 89.0919 90.4643C89.415 90.1066 90.1689 89.7633 90.1554 88.9478L90.29 89.0622C90.1554 89.1051 90.0073 89.1338 89.8458 89.1767C89.5227 89.2625 89.213 89.3484 88.9303 89.4199L88.9976 89.3627C88.6207 90.0637 88.2975 90.6503 88.0956 90.9937L88.0552 90.9079C88.3379 90.9651 88.4995 91.0223 88.4995 91.0366V91.0509Z" fill="#233339"/>
<g opacity="0.3">
<path d="M88.5268 91.041L88.7018 90.898C88.7018 90.898 89.2268 90.2112 89.1326 89.2812L88.9172 89.3385L88.4729 90.7692L88.5402 91.0553L88.5268 91.041Z" fill="black"/>
</g>
<path d="M88.9573 85.1991C88.9573 85.1991 88.7688 85.1991 88.5803 85.1133C88.3918 85.0274 88.2437 84.9559 88.2572 84.8844C88.2572 84.8271 88.4591 84.8128 88.6611 84.8844C88.863 84.9702 88.9842 85.1276 88.9573 85.1848V85.1991Z" fill="white"/>
<path d="M90.0473 89.2656C90.0473 89.2656 90.1012 89.4516 89.98 89.6233C89.8723 89.7807 89.7108 89.8522 89.6838 89.795C89.6435 89.7378 89.7242 89.6233 89.805 89.4945C89.8992 89.3658 89.98 89.2513 90.0473 89.2799V89.2656Z" fill="white"/>
<path d="M79.6042 88.056L77.0198 88.75L77.8641 92.3011L80.4485 91.6071L79.6042 88.056Z" fill="#EC655B"/>
<path d="M77.8633 92.3021C77.8633 92.3021 77.7556 91.973 77.5941 91.3578C77.4325 90.7426 77.1902 89.8412 76.9344 88.7682L76.9075 88.668L77.0017 88.6394C77.7826 88.4248 78.6576 88.1816 79.5866 87.9384C79.5597 87.924 79.8424 88.0957 79.7212 88.0242V88.0671V88.1243L79.7616 88.2531L79.8154 88.4963C79.8558 88.6537 79.8962 88.8111 79.9232 88.9685C79.9905 89.2832 80.0712 89.598 80.1386 89.8841C80.2732 90.4707 80.4078 91.0287 80.5155 91.5438L80.5424 91.6439L80.4617 91.6725C79.6539 91.8728 78.9942 92.0302 78.5499 92.1304C78.0922 92.2305 77.8499 92.2877 77.8633 92.2734C77.8633 92.2591 78.1326 92.1733 78.5903 92.0302C79.0346 91.8871 79.6674 91.7012 80.4347 91.4865L80.3674 91.601C80.2463 91.0859 80.1116 90.5423 79.9635 89.9414C79.8962 89.6409 79.8155 89.3405 79.7347 89.0257C79.6943 88.8683 79.6539 88.7109 79.6135 88.5536L79.5597 88.3103L79.5327 88.1816V88.1243L79.5058 88.0957V88.0671C79.3846 87.9956 79.6674 88.1673 79.6404 88.153C78.7115 88.3962 77.8364 88.6251 77.0556 88.8397L77.1229 88.7109C77.3652 89.7411 77.5402 90.6281 77.6749 91.2576C77.8095 91.8871 77.8768 92.2734 77.8633 92.2878V92.3021Z" fill="#233339"/>
<path d="M79.6543 91.8008C79.6543 91.8008 79.4793 91.4002 79.3177 90.785L79.385 90.8566C79.2369 90.8136 79.0754 90.7564 78.9273 90.7135H78.8734L78.86 90.6276C78.8196 90.4846 78.7927 90.3415 78.7523 90.1841C78.7119 90.0124 78.6715 89.8407 78.6311 89.6691V89.6118L78.6446 89.5689L78.9677 89.1397V89.2255C78.833 88.6675 78.7792 88.2812 78.8196 88.2812C78.86 88.2812 78.9811 88.6246 79.1292 89.1826V89.2255L79.1158 89.2685L78.8196 89.712V89.6118C78.8734 89.7835 78.9138 89.9409 78.9677 90.1269C79.0081 90.27 79.035 90.4273 79.0754 90.5704L79.0081 90.4846C79.1562 90.5418 79.3042 90.599 79.4658 90.6562H79.5197V90.7278C79.6543 91.3573 79.7081 91.7865 79.6677 91.8008H79.6543Z" fill="#233339"/>
<path d="M78.7385 92.043C78.7385 92.043 78.5635 91.6424 78.4019 91.0272L78.4692 91.0987C78.3212 91.0558 78.1596 90.9986 78.0115 90.9557H77.9577L77.9442 90.8698C77.9038 90.7267 77.8769 90.5837 77.8365 90.4263C77.7961 90.2546 77.7557 90.0829 77.7153 89.9112V89.854L77.7288 89.8111L78.0519 89.3819V89.4677C77.9173 88.9097 77.8634 88.5234 77.9038 88.5234C77.9442 88.5234 78.0654 88.8668 78.2135 89.4248V89.4677L78.2 89.5106L77.9038 89.9542V89.854C77.9577 90.0257 77.9981 90.1831 78.0519 90.3691C78.0923 90.5264 78.1192 90.6695 78.1596 90.8126L78.0923 90.7267C78.2404 90.784 78.3885 90.8412 78.55 90.8984H78.6039V90.97C78.7385 91.5995 78.7924 92.0287 78.752 92.043H78.7385Z" fill="#233339"/>
<path d="M80.7848 86.0781L79.277 87.2799C79.0077 87.5232 78.8597 87.8665 78.8462 88.2385L80.2059 87.8951L81.0676 86.2355L80.7848 86.0781Z" fill="#EC655B"/>
<path d="M80.7847 86.0812C80.7847 86.0812 80.8789 86.0955 81.0943 86.1957H81.1347L81.1078 86.2672C80.9597 86.6106 80.6635 87.2115 80.2865 87.9555L80.2596 87.9984H80.2192C79.8827 88.0985 79.5192 88.1987 79.1422 88.3131C79.048 88.3418 78.9537 88.3704 78.8595 88.3847L78.7249 88.4276V88.2702C78.7249 87.7981 78.9806 87.3689 79.2903 87.1399C79.5595 86.9253 79.8288 86.7393 80.0711 86.5533C80.5154 86.2243 80.7712 86.0526 80.7712 86.0812C80.7712 86.1098 80.5154 86.3387 80.125 86.6964C79.9096 86.8824 79.6673 87.0827 79.4115 87.2973C79.1422 87.4976 78.9537 87.8553 78.9403 88.2702L78.8056 88.1558C78.8999 88.1271 78.9941 88.1128 79.0884 88.0842C79.4653 87.9841 79.8288 87.8839 80.1654 87.7981L80.0981 87.8553C80.4885 87.1256 80.8116 86.539 81.0135 86.2243V86.2958C80.8654 86.1814 80.7712 86.1098 80.7712 86.0955L80.7847 86.0812Z" fill="#233339"/>
<g opacity="0.3">
<path d="M79.856 87.9966C79.9502 87.4672 80.1521 86.9236 80.4349 86.3656L80.7849 86.0938L80.2733 87.5674L80.206 87.9108L79.856 88.0109V87.9966Z" fill="black"/>
</g>
<path d="M82.1307 92.8071L80.3805 92.4924C80.044 92.4208 79.7478 92.1919 79.5728 91.8629L80.9325 91.4766L82.4403 92.5067L82.1442 92.8071H82.1307Z" fill="#EC655B"/>
<path d="M82.1311 92.807C82.1311 92.807 82.2254 92.664 82.3869 92.4637V92.5495C82.0638 92.3492 81.5118 92.0058 80.8656 91.5766H80.9464C80.6367 91.6768 80.3002 91.7626 79.9636 91.8628C79.8424 91.8914 79.7078 91.9343 79.5866 91.9629L79.654 91.7912C79.829 92.1346 80.1521 92.3492 80.4617 92.4064C80.7714 92.478 81.0541 92.5352 81.3233 92.5924C81.808 92.7069 82.1177 92.7927 82.1311 92.8213C82.1311 92.85 81.8484 92.8213 81.3368 92.7498C81.0541 92.7069 80.7579 92.664 80.4348 92.621C80.0713 92.5781 79.6943 92.3206 79.4789 91.92L79.4116 91.7912L79.5463 91.7483C79.6674 91.7197 79.7886 91.6768 79.9232 91.6482C80.2732 91.5623 80.5964 91.4765 80.906 91.3906H80.9464H80.9868C81.633 91.8341 82.158 92.2204 82.4677 92.4637L82.5215 92.5066L82.4677 92.5495C82.2523 92.7355 82.1446 92.8214 82.1446 92.807H82.1311Z" fill="#233339"/>
<g opacity="0.3">
<path d="M82.0906 92.8085L81.7944 92.7655C81.7944 92.7655 81.027 92.4222 80.6904 91.5494L80.9058 91.4922L81.929 92.5223L82.0771 92.8085H82.0906Z" fill="black"/>
</g>
<path d="M79.0346 87.8827C79.0346 87.8827 79.0211 87.6538 79.1557 87.4821C79.2903 87.2961 79.4654 87.2103 79.5058 87.2675C79.5461 87.3248 79.4519 87.4678 79.3307 87.6252C79.2096 87.7826 79.0884 87.9114 79.0346 87.8827Z" fill="white"/>
<path d="M79.8962 92C79.8962 92 80.0578 92 80.2059 92.0715C80.3405 92.1431 80.4617 92.2146 80.4482 92.2862C80.4482 92.3434 80.2732 92.372 80.1116 92.2862C79.9366 92.2003 79.8558 92.0429 79.8962 92Z" fill="white"/>
<path d="M83.9629 83.5156L84.0976 84.0593L82.9532 84.3598L82.8186 83.8161C83.1282 83.6301 83.5052 83.5299 83.9629 83.5156Z" fill="#EC655B"/>
<path d="M83.9625 83.5103C83.9625 83.5103 83.4509 83.5819 82.872 83.911L82.9258 83.7822C82.9662 83.9539 83.0066 84.1399 83.0604 84.3116L82.9258 84.2257C83.3701 84.1113 83.774 84.0111 84.0702 83.9539L84.0163 84.054C83.9625 83.7536 83.949 83.5247 83.9625 83.496C83.9759 83.4674 84.0567 83.6534 84.1644 84.0111L84.1913 84.0826L84.1106 84.1113C83.8278 84.2114 83.4239 84.3259 82.9797 84.4546L82.872 84.4832L82.845 84.3688C82.8047 84.1828 82.7643 83.9968 82.7239 83.8251V83.7393L82.7777 83.6963C83.1008 83.5247 83.4105 83.4674 83.6259 83.4531C83.7336 83.4531 83.8144 83.4531 83.8817 83.4531C83.949 83.4531 83.9759 83.4817 83.9759 83.4817L83.9625 83.5103Z" fill="#233339"/>
<path d="M83.1144 83.6797C83.1144 83.6797 83.249 83.7798 83.2894 83.9372C83.3298 84.0946 83.3163 84.2377 83.249 84.252C83.1952 84.2663 83.1144 84.1518 83.074 83.9944C83.0336 83.8371 83.0471 83.694 83.1144 83.6797Z" fill="#233339"/>
<path d="M83.4239 83.6094C83.4239 83.6094 83.5586 83.7095 83.599 83.8669C83.6394 84.0243 83.6259 84.1674 83.5586 84.1817C83.4913 84.196 83.4239 84.0815 83.3836 83.9241C83.3432 83.7668 83.3566 83.6237 83.4239 83.6094Z" fill="#233339"/>
<path d="M83.7067 83.5391C83.7067 83.5391 83.8413 83.6392 83.8817 83.7966C83.9221 83.954 83.9086 84.097 83.8413 84.1114C83.7874 84.1257 83.7067 84.0112 83.6663 83.8538C83.6259 83.6964 83.6393 83.5534 83.7067 83.5391Z" fill="#233339"/>
<path d="M83.4374 84.1303C85.8472 83.4865 88.2975 85.0317 88.9167 87.607C89.5226 90.168 88.0686 92.7719 85.6453 93.43C83.2354 94.0738 80.7852 92.5287 80.1659 89.9534C79.5601 87.3924 81.0141 84.7884 83.4374 84.1303Z" fill="#EC655B"/>
<path d="M83.4373 84.1275C83.4373 84.1275 83.0469 84.242 82.4276 84.5997C81.8218 84.9574 80.9601 85.687 80.4755 86.9318C80.2332 87.547 80.0851 88.2766 80.1389 89.0635C80.1928 89.8361 80.4216 90.6803 80.9063 91.3956C81.1352 91.7676 81.4313 92.0967 81.7679 92.3828C82.1045 92.6833 82.4814 92.9265 82.8988 93.0982C83.7335 93.4702 84.7028 93.5417 85.6318 93.2985C86.5607 93.0409 87.3819 92.483 87.9474 91.739C88.2435 91.367 88.4724 90.9664 88.634 90.5372C88.7955 90.108 88.9032 89.6644 88.9436 89.2352C89.0379 88.3625 88.8628 87.5041 88.5667 86.803C88.2705 86.0876 87.7993 85.5153 87.3146 85.1004C86.3184 84.2563 85.2548 84.0417 84.5547 84.0417C83.8412 84.0417 83.4642 84.1705 83.4508 84.1419C83.4508 84.1419 83.8277 83.9845 84.5547 83.9559C85.2683 83.9272 86.3722 84.1132 87.4089 84.986C87.9204 85.4152 88.4051 86.0018 88.7282 86.7458C89.0379 87.4897 89.2398 88.3625 89.1321 89.2925C89.0917 89.7503 88.984 90.2081 88.809 90.6659C88.6474 91.1095 88.4051 91.5387 88.0955 91.925C87.5031 92.7119 86.6415 93.2985 85.6721 93.556C84.7028 93.8135 83.6796 93.7277 82.8046 93.3414C82.3603 93.1554 81.9699 92.8979 81.6198 92.5831C81.2698 92.2827 80.9601 91.925 80.7313 91.5387C80.2332 90.7804 80.0043 89.9077 79.9504 89.0922C79.8966 88.2766 80.0716 87.5184 80.3274 86.8745C80.8524 85.5869 81.7545 84.8715 82.3872 84.5282C83.0334 84.1848 83.4373 84.1419 83.4373 84.1419V84.1275Z" fill="#233339"/>
<path d="M83.4906 84.3741C85.7793 83.7589 88.0949 85.2325 88.6738 87.6648C89.2527 90.097 87.8661 92.5579 85.5774 93.1731C83.2887 93.7883 80.9731 92.3146 80.3942 89.8824C79.8153 87.4502 81.202 84.9893 83.4906 84.3741Z" fill="white"/>
<path d="M81.7006 89.5458C81.7006 89.5458 81.6064 89.6888 81.4448 89.7318C81.2833 89.7747 81.1486 89.7604 81.1352 89.7031C81.1217 89.6459 81.2294 89.5601 81.391 89.5171C81.5525 89.4742 81.6871 89.4885 81.7006 89.5458Z" fill="#EC655B"/>
<path d="M81.7406 87.9596C81.7406 87.9596 81.5791 88.0312 81.431 87.9882C81.2694 87.9453 81.1617 87.8595 81.1752 87.7879C81.1887 87.7307 81.3368 87.7164 81.4849 87.7593C81.6464 87.8023 81.7541 87.8881 81.7406 87.9596Z" fill="#EC655B"/>
<path d="M82.5353 86.6153C82.5353 86.6153 82.3603 86.601 82.2526 86.4866C82.1315 86.3721 82.0776 86.229 82.118 86.1861C82.1584 86.1432 82.293 86.2004 82.4007 86.3149C82.5219 86.4293 82.5757 86.5724 82.5353 86.6153Z" fill="#EC655B"/>
<path d="M87.3413 88.0156C87.3413 88.0156 87.4355 87.8726 87.5971 87.8296C87.7587 87.7867 87.8933 87.801 87.9067 87.8583C87.9202 87.9155 87.8125 88.0013 87.6509 88.0443C87.4894 88.0872 87.3548 88.0729 87.3413 88.0156Z" fill="#EC655B"/>
<path d="M86.6006 86.6447C86.6006 86.6447 86.614 86.4587 86.7352 86.3442C86.8564 86.2298 86.9775 86.1582 87.0179 86.2155C87.0583 86.2584 87.0045 86.4015 86.8833 86.5159C86.7621 86.6304 86.641 86.7019 86.6006 86.6447Z" fill="#EC655B"/>
<path d="M85.308 85.8566C85.308 85.8566 85.2407 85.6849 85.2946 85.5275C85.3484 85.3559 85.4292 85.2414 85.483 85.27C85.5369 85.2843 85.5504 85.4417 85.4965 85.5991C85.4427 85.7708 85.3619 85.8852 85.308 85.8566Z" fill="#EC655B"/>
<path d="M83.6525 85.2969C83.6525 85.2969 83.8006 85.4256 83.841 85.6259C83.8948 85.8262 83.8814 85.9979 83.8275 86.0122C83.7736 86.0265 83.6794 85.8835 83.639 85.6832C83.5852 85.4829 83.5986 85.3112 83.6525 85.2969Z" fill="#EC655B"/>
<path d="M87.3412 89.6048C87.3412 89.6048 87.5028 89.5333 87.6509 89.5762C87.8124 89.6191 87.9201 89.705 87.9067 89.7765C87.8932 89.8337 87.7451 89.8481 87.597 89.8051C87.4355 89.7622 87.3278 89.6764 87.3412 89.6048Z" fill="#EC655B"/>
<path d="M86.5604 90.9531C86.5604 90.9531 86.7354 90.9674 86.8431 91.0819C86.9643 91.1963 87.0181 91.3394 86.9777 91.3823C86.9373 91.4253 86.8027 91.368 86.695 91.2536C86.5738 91.1391 86.52 90.996 86.5604 90.9531Z" fill="#EC655B"/>
<path d="M82.4946 90.9186C82.4946 90.9186 82.4811 91.1046 82.3599 91.219C82.2388 91.3335 82.1176 91.405 82.0772 91.3478C82.0368 91.3049 82.0907 91.1618 82.2119 91.0473C82.333 90.9329 82.4542 90.8614 82.4946 90.9186Z" fill="#EC655B"/>
<path d="M83.7875 91.7075C83.7875 91.7075 83.8548 91.8792 83.8009 92.0366C83.7471 92.2083 83.6663 92.3227 83.6124 92.2941C83.5586 92.2798 83.5451 92.1224 83.599 91.965C83.6528 91.7934 83.7336 91.6789 83.7875 91.7075Z" fill="#EC655B"/>
<path d="M85.443 92.2632C85.443 92.2632 85.2949 92.1345 85.2545 91.9342C85.2006 91.7339 85.2141 91.5622 85.268 91.5479C85.3218 91.5336 85.4161 91.6766 85.4564 91.8769C85.5103 92.0772 85.4968 92.2489 85.443 92.2632Z" fill="#EC655B"/>
<path d="M86.9108 88.0052C86.9108 88.0052 86.8839 87.9766 86.8704 87.9766L84.2317 88.5632L84.2586 88.6776L86.8839 88.0338C86.8839 88.0338 86.9108 88.0052 86.9108 87.9909V88.0052Z" fill="#E0E0E0"/>
<path d="M84.2448 88.6484L84.891 90.3796C84.891 90.3796 84.8641 90.4225 84.8641 90.3939L84.0024 88.7486L84.2582 88.6484H84.2448Z" fill="#EC655B"/>
<path d="M84.2849 88.5194L85.0523 86.0442L84.9985 86.0156L84.083 88.4622L84.2849 88.5194Z" fill="#EC655B"/>
<path d="M84.097 88.859C83.9893 88.859 83.895 88.7445 83.9085 88.6157C83.9085 88.5013 84.0162 88.4011 84.1374 88.4154C84.2451 88.4154 84.3393 88.5299 84.3259 88.6587C84.3259 88.7731 84.2182 88.8733 84.097 88.859Z" fill="#EC655B"/>
<path d="M84.0965 88.8627C84.0965 88.8627 84.1773 88.8055 84.2177 88.734C84.2581 88.6624 84.2177 88.548 84.1369 88.5337C84.0427 88.5337 83.9888 88.6338 84.0158 88.7053C84.0427 88.7912 84.11 88.8198 84.11 88.8484C84.11 88.877 84.0023 88.92 83.8811 88.7912C83.8273 88.7196 83.8003 88.6052 83.8407 88.4907C83.8811 88.3763 84.0023 88.2761 84.1504 88.2904C84.285 88.2904 84.3927 88.4192 84.4196 88.548C84.4466 88.6767 84.3927 88.7769 84.3254 88.8341C84.1908 88.9486 84.0831 88.877 84.0965 88.8484V88.8627Z" fill="#233339"/>
<path d="M83.3154 89.6206C83.3154 89.6206 83.1538 89.4059 83.0865 89.1055C83.0192 88.805 83.0057 88.5618 83.0596 88.5475C83.1134 88.5332 83.2212 88.7621 83.2885 89.0626C83.3558 89.363 83.3692 89.6062 83.3154 89.6206Z" fill="#E0E0E0"/>
<path d="M83.1673 90.1673C83.1673 90.1673 82.9519 89.7238 82.8173 89.1515C82.6827 88.5792 82.6154 88.0928 82.6692 88.0785C82.7231 88.0641 82.8846 88.522 83.0193 89.0943C83.1539 89.6666 83.2212 90.153 83.1673 90.1673Z" fill="#E0E0E0"/>
<path d="M78.9669 103.397C78.9669 103.397 77.6341 112.754 77.7418 113.412C77.8495 114.07 80.9325 133.099 82.1711 135.789C83.4096 138.479 92.4432 144.202 96.859 142.141C101.275 140.081 107.616 136.003 108.154 129.007C108.693 122.011 108.666 116.116 106.27 109.235C103.873 102.353 98.0303 95.2422 98.0303 95.2422L78.9669 103.397Z" fill="#405B66"/>
<path d="M94.8939 142.572C94.8939 142.572 94.8131 142.572 94.665 142.558C94.5035 142.543 94.2881 142.515 94.0053 142.486C93.7092 142.458 93.3591 142.415 92.9418 142.314C92.5244 142.214 92.0263 142.143 91.5012 141.957C91.232 141.871 90.9493 141.785 90.6531 141.699C90.3569 141.585 90.0607 141.456 89.7376 141.327C89.4145 141.213 89.1049 141.041 88.7683 140.869C88.6067 140.784 88.4317 140.698 88.2567 140.612C88.0817 140.526 87.9201 140.412 87.7451 140.297C86.3719 139.467 84.9179 138.266 83.5851 136.677C82.2657 135.075 81.0541 133.086 80.1655 130.754C79.3443 128.394 78.7385 125.79 78.1057 123.043C76.8671 117.549 75.6555 111.454 74.4573 105.016V104.915L74.5246 104.887C75.2381 104.615 75.992 104.314 76.7594 104.028C83.1408 101.567 89.1991 99.1639 94.4631 96.6458L94.5304 96.6172L94.5842 96.6744C96.0113 98.2482 97.196 99.9222 98.1923 101.61C98.7039 102.44 99.1347 103.313 99.552 104.143C99.9425 105.001 100.333 105.817 100.643 106.647C101.962 109.937 102.635 113.028 103.066 115.574C103.47 118.135 103.604 120.181 103.645 121.583C103.672 122.284 103.645 122.828 103.645 123.186C103.645 123.357 103.645 123.5 103.645 123.601C103.645 123.686 103.645 123.744 103.645 123.744C103.645 123.744 103.645 123.701 103.645 123.601C103.645 123.5 103.645 123.357 103.645 123.186C103.631 122.828 103.645 122.284 103.604 121.583C103.551 120.181 103.402 118.135 102.972 115.589C102.541 113.056 101.841 109.98 100.521 106.704C100.212 105.874 99.8213 105.058 99.4309 104.214C99.0001 103.385 98.5827 102.526 98.0711 101.696C97.0749 100.022 95.8901 98.3484 94.4765 96.8032L94.5842 96.8318C89.3068 99.3642 83.262 101.782 76.8671 104.243C76.0997 104.543 75.3324 104.83 74.6323 105.101L74.6996 104.973C75.8978 111.411 77.096 117.506 78.3346 122.985C78.9673 125.718 79.5597 128.336 80.3675 130.668C81.2426 132.986 82.4273 134.961 83.7332 136.549C85.0525 138.137 86.4796 139.324 87.8394 140.168C88.0144 140.269 88.1759 140.383 88.3375 140.483C88.5125 140.569 88.6741 140.655 88.8356 140.741C89.1587 140.912 89.4818 141.084 89.7915 141.199C90.1011 141.327 90.4108 141.456 90.6935 141.57C90.9897 141.671 91.2724 141.756 91.5282 141.842C92.0532 142.028 92.5379 142.114 92.9552 142.214C93.3726 142.329 93.7361 142.357 94.0188 142.4C94.3015 142.443 94.5169 142.472 94.6785 142.5C94.8266 142.529 94.9074 142.543 94.9074 142.543L94.8939 142.572Z" fill="#233339"/>
<g opacity="0.3">
<path d="M75.6552 110.764L74.5647 114.484C74.5647 114.484 76.5033 135.058 81.3904 140.223C86.2774 145.388 91.2317 145.044 91.2317 145.044L90.3835 141.539C90.3835 141.539 82.3866 138.735 79.6671 128.448C77.4457 120.021 75.6552 110.75 75.6552 110.75V110.764Z" fill="#233339"/>
</g>
</g>
<defs>
<clipPath id="clip0_10018_18984">
<rect width="108.188" height="171" fill="white" transform="translate(0.25)"/>
</clipPath>
</defs>
</svg>
