<svg width="27" height="41" viewBox="0 0 27 41" fill="none" xmlns="http://www.w3.org/2000/svg">
<path fill-rule="evenodd" clip-rule="evenodd" d="M0 25.8558C0 18.0303 6.05301 11.6544 13.5 11.6544C20.947 11.6544 27 18.0303 27 25.8558C27 33.6812 20.9376 40.0572 13.5 40.0572C6.06237 40.0572 0 33.6812 0 25.8558Z" fill="#FFC039"/>
<path d="M11.7417 21.234C12.8082 21.4299 14.0151 21.9098 15.3249 22.85L11.7417 21.234Z" fill="#FFC039"/>
<path d="M15.3247 22.8492C16.0315 23.3631 16.6366 24.002 17.3234 24.5422C17.6075 24.7657 17.9394 25.0039 18.2998 25.2194" fill="#FFC039"/>
<path d="M26.4383 10.0683H22.6036C21.2485 10.0683 19.9057 9.7285 18.7817 8.97158C18.3465 8.67854 17.9133 8.37109 17.4818 8.04918C14.4414 5.78063 10.0113 5.88995 6.86661 8.01153C4.67742 9.49044 3.26471 10.225 2.62853 10.225C2.19818 10.225 1.97363 10.1271 1.97363 9.93117C1.97363 9.78426 2.20754 9.58838 2.69403 9.32394C5.7907 7.63936 8.70026 5.20064 11.404 1.99799C12.2366 1.00879 12.7606 0.430937 12.9851 0.264438C13.2003 0.0881451 13.5371 0 13.9768 0C14.3791 0 14.6878 0.0783522 14.903 0.235057C15.1181 0.391762 15.7262 0.989199 16.7179 2.02737C19.7165 5.15675 22.9483 7.83695 26.4413 10.0582C26.4459 10.0612 26.4438 10.0683 26.4383 10.0683Z" fill="#FFC039"/>
</svg>
