<svg width="39" height="41" viewBox="0 0 39 41" fill="none" xmlns="http://www.w3.org/2000/svg">
<g id="Component 1">
<rect id="Rectangle 31" y="0.881348" width="38.2375" height="40" rx="19.1187" fill="#00425E"/>
<path id="Vector" d="M14.5749 22.565H21.0822V20.955H14.5749V22.565ZM14.5749 20.15H24.3358V18.54H14.5749V20.15ZM14.5749 17.735H24.3358V16.125H14.5749V17.735ZM11.3212 29.005V14.515C11.3212 14.0723 11.4807 13.6931 11.7995 13.3776C12.1184 13.062 12.5012 12.9045 12.9481 12.905H25.9627C26.41 12.905 26.7931 13.0628 27.112 13.3784C27.4309 13.6939 27.59 14.0728 27.5895 14.515V24.175C27.5895 24.6178 27.43 24.9969 27.1112 25.3125C26.7923 25.6281 26.4095 25.7856 25.9627 25.785H14.5749L11.3212 29.005ZM12.9481 25.1209L13.9038 24.175H25.9627V14.515H12.9481V25.1209Z" fill="white"/>
</g>
</svg>
