<svg width="39" height="41" viewBox="0 0 39 41" fill="none" xmlns="http://www.w3.org/2000/svg">
<g id="Component 1">
<rect id="Rectangle 31" y="0.881348" width="38.2375" height="40" rx="19.1187" fill="#00425E"/>
<path id="Vector" d="M21.5934 20.3615C23.5552 20.3615 25.1246 21.8575 25.1246 23.7275C25.1246 24.3858 24.9284 24.9992 24.5831 25.5228L27 27.8416L25.9093 28.8813L23.461 26.5849C22.9196 26.9066 22.2761 27.0936 21.5934 27.0936C19.6317 27.0936 18.0623 25.5976 18.0623 23.7275C18.0623 21.8575 19.6317 20.3615 21.5934 20.3615ZM21.5934 21.8575C21.0731 21.8575 20.5742 22.0545 20.2063 22.4052C19.8384 22.7559 19.6317 23.2316 19.6317 23.7275C19.6317 24.2235 19.8384 24.6992 20.2063 25.0499C20.5742 25.4005 21.0731 25.5976 21.5934 25.5976C22.1137 25.5976 22.6127 25.4005 22.9806 25.0499C23.3485 24.6992 23.5552 24.2235 23.5552 23.7275C23.5552 23.2316 23.3485 22.7559 22.9806 22.4052C22.6127 22.0545 22.1137 21.8575 21.5934 21.8575ZM24.7322 12.8813C24.8363 12.8813 24.9361 12.9208 25.0097 12.9909C25.0832 13.061 25.1246 13.1562 25.1246 13.2554V20.2194C24.6694 19.8079 24.1437 19.4713 23.5552 19.2395V14.901L21.2011 15.7687V18.8655C20.6518 18.9178 20.1182 19.045 19.6317 19.2395V15.7762L16.4929 14.7289V23.7275C16.4929 24.2063 16.5635 24.67 16.6969 25.1039L15.7082 24.7748L11.5179 26.3231L11.3923 26.3456C11.2883 26.3456 11.1885 26.3062 11.1149 26.236C11.0413 26.1659 11 26.0708 11 25.9716V14.6616C11 14.4896 11.1177 14.3549 11.2825 14.3026L15.7082 12.8813L20.4164 14.4522L24.6067 12.9038L24.7322 12.8813ZM12.5694 15.4695V24.3334L14.9235 23.4657V14.714L12.5694 15.4695Z" fill="white"/>
</g>
</svg>
