<svg width="26" height="39" viewBox="0 0 26 39" fill="none" xmlns="http://www.w3.org/2000/svg">
<path fill-rule="evenodd" clip-rule="evenodd" d="M0 24.5558C0 17.1238 5.74866 11.0685 12.8212 11.0685C19.8937 11.0685 25.6424 17.1238 25.6424 24.5558C25.6424 31.9878 19.8849 38.0431 12.8212 38.0431C5.75754 38.0431 0 31.9878 0 24.5558Z" fill="#006997"/>
<path d="M11.1514 20.1663C12.1643 20.3523 13.3105 20.8081 14.5544 21.701L11.1514 20.1663Z" fill="#006997"/>
<path d="M14.5542 21.7004C15.2255 22.1884 15.8001 22.7952 16.4524 23.3083C16.7222 23.5206 17.0375 23.7467 17.3797 23.9514" fill="#006997"/>
<path d="M25.1086 9.56204H21.4667C20.1797 9.56204 18.9045 9.23934 17.8369 8.52048C17.4237 8.24217 17.0122 7.95017 16.6024 7.64445C13.7149 5.48997 9.50756 5.59379 6.52097 7.6087C4.44186 9.01324 3.10018 9.71086 2.49599 9.71086C2.08728 9.71086 1.87402 9.61785 1.87402 9.43182C1.87402 9.29229 2.09617 9.10626 2.55819 8.85512C5.49916 7.25524 8.26243 4.93915 10.8302 1.89752C11.621 0.958063 12.1186 0.409269 12.3318 0.251142C12.5362 0.083713 12.856 0 13.2736 0C13.6557 0 13.9489 0.0744125 14.1532 0.223238C14.3576 0.372064 14.9351 0.939461 15.877 1.92543C18.7248 4.89746 21.7941 7.4429 25.1114 9.5525C25.1157 9.55528 25.1138 9.56204 25.1086 9.56204Z" fill="#006997"/>
</svg>
