<svg width="19" height="27" viewBox="0 0 19 27" fill="none" xmlns="http://www.w3.org/2000/svg">
<path d="M11.6213 1.34912C10.9339 0.661666 10.5116 0.264298 10.3602 0.157474C10.2087 0.050189 9.99456 0 9.71691 0C9.4144 0 9.18095 0.0566353 9.02946 0.176352C8.87797 0.289623 8.51238 0.674559 7.93221 1.33024C6.05311 3.45521 4.02898 5.076 1.87223 6.19858C1.53794 6.37493 1.37402 6.50754 1.37402 6.60193C1.37402 6.73454 1.52551 6.79762 1.82803 6.79762C2.2696 6.79762 3.25312 6.31185 4.77905 5.32832C6.2419 4.38256 7.47821 3.32951 8.47416 2.17516C10.3597 4.09202 12.2954 5.59907 14.2883 6.69632H18.2412C18.2873 6.69632 18.3038 6.63784 18.2647 6.61344C15.8823 5.14783 13.6694 3.39121 11.6209 1.34866L11.6213 1.34912Z" fill="#FFC20E"/>
<path d="M9.5 7.74951C4.25317 7.74951 0 12.0031 0 17.2495C0 22.4959 4.25317 26.7495 9.5 26.7495C14.7468 26.7495 19 22.4963 19 17.2495C19 12.0027 14.7468 7.74951 9.5 7.74951ZM16.2728 14.6816C16.5771 15.4814 16.7512 16.3447 16.7512 17.2495C16.7512 18.868 16.2115 20.3589 15.3123 21.5667C13.9894 23.3431 11.8801 24.5007 9.5 24.5007C9.18874 24.5007 8.88392 24.4744 8.58278 24.4362C6.31231 24.148 4.37059 22.8076 3.2563 20.9188C3.2563 20.9188 3.25584 20.9179 3.25538 20.9175C2.98187 20.4533 2.75349 19.9602 2.58773 19.438C2.58082 19.4164 2.57391 19.3947 2.56747 19.3731C2.51498 19.2018 2.47262 19.0264 2.43256 18.85C2.41414 18.7662 2.3948 18.6829 2.37914 18.5986C2.35428 18.4665 2.3354 18.332 2.3179 18.1971C2.30317 18.0834 2.2889 17.9701 2.27969 17.8559C2.2691 17.7307 2.26449 17.6041 2.26035 17.4774C2.25805 17.4015 2.24884 17.3273 2.24884 17.2504C2.24884 17.2099 2.25436 17.1712 2.25482 17.1307C2.25712 16.9889 2.26587 16.8489 2.276 16.7089C2.28291 16.6146 2.28844 16.5197 2.29903 16.4253C2.32021 16.2411 2.34783 16.0592 2.38237 15.8797C2.38973 15.8396 2.39618 15.7996 2.40401 15.7595C3.09376 12.4742 6.01255 9.99881 9.49954 9.99881C12.5799 9.99881 15.211 11.9332 16.2599 14.648C16.2617 14.6535 16.2635 14.6586 16.2658 14.6641C16.2658 14.6682 16.2649 14.6724 16.2649 14.6765" fill="#FFC20E"/>
</svg>
