<svg width="38" height="36" viewBox="0 0 38 36" fill="none" xmlns="http://www.w3.org/2000/svg">
<path d="M30.684 3.75675C30.4519 3.67942 30.4519 3.3518 30.684 3.27446L32.0459 2.821C32.3453 2.72118 32.6174 2.55302 32.8405 2.32982C33.0636 2.10662 33.2316 1.83454 33.3313 1.53512L33.7848 0.17402C33.8621 -0.0579856 34.1898 -0.0579857 34.2671 0.17402L34.7206 1.53583C34.8205 1.83518 34.9886 2.10718 35.2119 2.33025C35.4351 2.55333 35.7072 2.72135 36.0066 2.821L37.3679 3.27446C37.4187 3.29114 37.463 3.32343 37.4943 3.36673C37.5257 3.41004 37.5426 3.46214 37.5426 3.51561C37.5426 3.56908 37.5257 3.62118 37.4943 3.66449C37.463 3.70779 37.4187 3.74008 37.3679 3.75675L36.0059 4.21022C35.7066 4.30996 35.4347 4.47802 35.2116 4.70109C34.9885 4.92416 34.8204 5.19611 34.7206 5.49539L34.2671 6.8572C34.2504 6.908 34.2181 6.95224 34.1748 6.9836C34.1315 7.01497 34.0794 7.03186 34.0259 7.03186C33.9725 7.03186 33.9204 7.01497 33.877 6.9836C33.8337 6.95224 33.8014 6.908 33.7848 6.8572L33.3313 5.49539C33.2315 5.19611 33.0634 4.92416 32.8403 4.70109C32.6172 4.47802 32.3453 4.30996 32.0459 4.21022L30.684 3.75675ZM27.0987 6.47263C27.0683 6.46255 27.0418 6.44313 27.023 6.41713C27.0042 6.39113 26.9941 6.35987 26.9941 6.3278C26.9941 6.29573 27.0042 6.26447 27.023 6.23848C27.0418 6.21248 27.0683 6.19306 27.0987 6.18297L27.9158 5.91089C28.28 5.78927 28.5655 5.50383 28.6871 5.13965L28.9592 4.32271C28.9693 4.29226 28.9887 4.26577 29.0147 4.24699C29.0407 4.22821 29.072 4.2181 29.1041 4.2181C29.1361 4.2181 29.1674 4.22821 29.1934 4.24699C29.2194 4.26577 29.2388 4.29226 29.2489 4.32271L29.521 5.13965C29.5809 5.31926 29.6817 5.48247 29.8156 5.61633C29.9495 5.7502 30.1127 5.85105 30.2923 5.91089L31.1094 6.18297C31.1398 6.19306 31.1663 6.21248 31.1851 6.23847C31.2039 6.26447 31.214 6.29573 31.214 6.3278C31.214 6.35987 31.2039 6.39113 31.1851 6.41713C31.1663 6.44313 31.1398 6.46255 31.1094 6.47263L30.2923 6.74471C30.1127 6.80455 29.9495 6.9054 29.8156 7.03927C29.6817 7.17314 29.5809 7.33634 29.521 7.51595L29.2489 8.3329C29.2388 8.36334 29.2194 8.38984 29.1934 8.40861C29.1674 8.42739 29.1361 8.4375 29.1041 8.4375C29.072 8.4375 29.0407 8.42739 29.0147 8.40861C28.9887 8.38984 28.9693 8.36334 28.9592 8.3329L28.6871 7.51595C28.6273 7.33634 28.5264 7.17314 28.3925 7.03927C28.2586 6.9054 28.0954 6.80455 27.9158 6.74471L27.0987 6.47263ZM26.3612 1.50278C26.3411 1.49584 26.3238 1.48284 26.3115 1.46558C26.2992 1.44831 26.2926 1.42765 26.2926 1.40647C26.2926 1.38528 26.2992 1.36462 26.3115 1.34735C26.3238 1.33009 26.3411 1.31709 26.3612 1.31015L26.9054 1.12876C27.1487 1.04791 27.3392 0.857385 27.4201 0.61413L27.6015 0.069971C27.6084 0.0499524 27.6214 0.0325927 27.6387 0.0203075C27.6559 0.00802225 27.6766 0.00142091 27.6978 0.00142091C27.719 0.00142091 27.7397 0.00802225 27.7569 0.0203075C27.7742 0.0325927 27.7872 0.0499524 27.7941 0.069971L27.9755 0.61413C28.0154 0.734008 28.0827 0.842937 28.172 0.932271C28.2614 1.0216 28.3703 1.08888 28.4902 1.12876L29.0344 1.31015C29.0545 1.31709 29.0718 1.33009 29.0841 1.34735C29.0964 1.36462 29.103 1.38528 29.103 1.40646C29.103 1.42765 29.0964 1.44831 29.0841 1.46558C29.0718 1.48284 29.0545 1.49584 29.0344 1.50278L28.4902 1.68417C28.3703 1.72405 28.2614 1.79132 28.172 1.88066C28.0827 1.96999 28.0154 2.07892 27.9755 2.1988L27.7941 2.74226C27.7872 2.76227 27.7742 2.77963 27.7569 2.79192C27.7397 2.8042 27.719 2.81081 27.6978 2.81081C27.6766 2.81081 27.6559 2.8042 27.6387 2.79192C27.6214 2.77963 27.6084 2.76227 27.6015 2.74226L27.4201 2.1981C27.3392 1.95484 27.1487 1.76432 26.9054 1.68347L26.3612 1.50278Z" fill="#101828"/>
<path d="M33.097 32.5558L25.5736 24.7773C27.3849 22.2843 28.3627 19.2497 28.3594 16.1317C28.3594 8.1672 22.0921 1.6875 14.3888 1.6875C6.68547 1.6875 0.418213 8.1672 0.418213 16.1317C0.418213 24.0961 6.68547 30.5758 14.3888 30.5758C17.4046 30.5792 20.3397 29.5683 22.751 27.6956L30.2744 35.474C30.6553 35.826 31.152 36.0139 31.6626 35.9991C32.1732 35.9844 32.659 35.768 33.0202 35.3946C33.3814 35.0211 33.5906 34.5189 33.6049 33.991C33.6192 33.4631 33.4374 32.9495 33.097 32.5558ZM4.40981 16.1317C4.40981 14.0911 4.99507 12.0964 6.09157 10.3997C7.18808 8.70304 8.74658 7.38065 10.57 6.59976C12.3934 5.81887 14.3999 5.61455 16.3356 6.01265C18.2713 6.41074 20.0494 7.39336 21.445 8.83626C22.8406 10.2792 23.791 12.1175 24.176 14.1189C24.5611 16.1202 24.3635 18.1947 23.6082 20.0799C22.8529 21.9651 21.5739 23.5765 19.9328 24.7101C18.2918 25.8438 16.3625 26.4489 14.3888 26.4489C11.7432 26.4456 9.20683 25.3576 7.33609 23.4234C5.46536 21.4893 4.41298 18.867 4.40981 16.1317Z" fill="#101828"/>
</svg>
