<svg width="39" height="41" viewBox="0 0 39 41" fill="none" xmlns="http://www.w3.org/2000/svg">
<rect y="0.881348" width="38.2375" height="40" rx="19.1187" fill="#00425E"/>
<g clip-path="url(#clip0_3599_50098)">
<path d="M17.0156 15.6714V26.9214" stroke="white" stroke-width="1.25" stroke-linecap="round" stroke-linejoin="round"/>
<path d="M11.3906 23.7964C12.0537 23.7964 12.6896 23.533 13.1584 23.0642C13.6272 22.5953 13.8906 21.9594 13.8906 21.2964C13.8906 20.6333 13.6272 19.9975 13.1584 19.5286C12.6896 19.0598 12.0537 18.7964 11.3906 18.7964V16.2964C11.3906 16.1306 11.4565 15.9717 11.5737 15.8544C11.6909 15.7372 11.8499 15.6714 12.0156 15.6714H27.0156C27.1814 15.6714 27.3404 15.7372 27.4576 15.8544C27.5748 15.9717 27.6406 16.1306 27.6406 16.2964V18.7964C26.9776 18.7964 26.3417 19.0598 25.8729 19.5286C25.404 19.9975 25.1406 20.6333 25.1406 21.2964C25.1406 21.9594 25.404 22.5953 25.8729 23.0642C26.3417 23.533 26.9776 23.7964 27.6406 23.7964V26.2964C27.6406 26.4621 27.5748 26.6211 27.4576 26.7383C27.3404 26.8555 27.1814 26.9214 27.0156 26.9214H12.0156C11.8499 26.9214 11.6909 26.8555 11.5737 26.7383C11.4565 26.6211 11.3906 26.4621 11.3906 26.2964V23.7964Z" stroke="white" stroke-width="1.25" stroke-linecap="round" stroke-linejoin="round"/>
</g>
<defs>
<clipPath id="clip0_3599_50098">
<rect width="20" height="20" fill="white" transform="translate(9.51562 11.2964)"/>
</clipPath>
</defs>
</svg>
