<svg width="129" height="142" viewBox="0 0 129 142" fill="none" xmlns="http://www.w3.org/2000/svg">
<path d="M100.646 125.509C112.815 118.626 119.956 114.298 122.037 112.599C124.125 110.902 125.713 108.091 126.899 104.181C128.19 99.9201 128.426 96.4016 127.465 93.7806C126.59 91.1859 122.98 84.4694 116.649 73.6285C96.1257 38.5108 82.9949 3.40333 77.1226 -31.5432C76.1808 -36.9694 75.0992 -39.818 73.8313 -40.2023C72.0499 -40.7423 70.5558 -38.8656 69.2643 -34.605C67.3792 -28.3859 69.7059 -12.556 76.4032 12.9399C82.8626 37.3936 91.7304 59.0936 102.985 77.8209C69.1861 96.5717 40.6778 117.698 17.4307 141.297L0.554917 196.971C0.358342 197.619 1.07311 198.091 1.56802 197.639C31.4264 170.053 64.4704 146.039 100.654 125.505L100.646 125.509Z" fill="white"/>
</svg>
