<svg width="39" height="41" viewBox="0 0 39 41" fill="none" xmlns="http://www.w3.org/2000/svg">
<g id="Component 1">
<rect id="Rectangle 31" y="0.881348" width="38.2375" height="40" rx="19.1187" fill="#00425E"/>
<g id="Group">
<path id="Vector" d="M17.7847 28.9448C14.9403 28.9448 13.5178 28.9448 12.6345 28.0072C11.7505 27.0704 11.7505 26.3616 11.7505 23.3448M26.836 23.3448C26.836 26.3616 26.836 27.0704 25.952 28.0072C25.0687 28.9448 23.6461 28.9448 20.8018 28.9448M20.8018 12.9448C23.6461 12.9448 25.0687 12.9448 25.952 13.8824C26.836 14.8192 26.836 15.528 26.836 18.5448M17.7847 12.9448C14.9403 12.9448 13.5178 12.9448 12.6345 13.8824C11.7505 14.8192 11.7505 15.528 11.7505 18.5448" stroke="white" stroke-width="1.43838" stroke-linecap="round"/>
<path id="Vector_2" d="M14.6861 22.5926C14.2373 22.0406 14.0132 21.7646 14.0132 20.9446C14.0132 20.1246 14.2373 19.8486 14.6861 19.2966C15.5821 18.1942 17.0846 16.9446 19.2932 16.9446C21.5009 16.9446 23.0042 18.1942 23.9003 19.2966C24.3491 19.8486 24.5731 20.1246 24.5731 20.9446C24.5731 21.7646 24.3491 22.0406 23.9003 22.5926C23.0042 23.695 21.5017 24.9446 19.2932 24.9446C17.0854 24.9446 15.5821 23.695 14.6861 22.5926Z" stroke="white" stroke-width="1.43838"/>
<path id="Vector_3" d="M19.2933 22.545C20.1265 22.545 20.8019 21.8286 20.8019 20.945C20.8019 20.0613 20.1265 19.345 19.2933 19.345C18.4602 19.345 17.7848 20.0613 17.7848 20.945C17.7848 21.8286 18.4602 22.545 19.2933 22.545Z" stroke="white" stroke-width="1.43838"/>
</g>
</g>
</svg>
