<svg width="28" height="28" viewBox="0 0 28 28" fill="none" xmlns="http://www.w3.org/2000/svg">
<g clip-path="url(#clip0_8373_57581)">
<path d="M26.6119 9.94325L12.5681 23.987C12.24 24.3149 11.795 24.4992 11.3311 24.4992C10.8672 24.4992 10.4222 24.3149 10.0941 23.987L2.26063 16.112C1.93303 15.7839 1.74902 15.3392 1.74902 14.8755C1.74902 14.4119 1.93303 13.9671 2.26063 13.639L4.44813 11.4515C4.77611 11.1249 5.22012 10.9416 5.68298 10.9416C6.14584 10.9416 6.58985 11.1249 6.91782 11.4515L11.3749 15.774L21.958 5.32107C22.286 4.99413 22.7302 4.81055 23.1934 4.81055C23.6565 4.81055 24.1007 4.99413 24.4288 5.32107L26.6108 7.45825C26.7749 7.62087 26.9052 7.81436 26.9941 8.02758C27.083 8.24079 27.1289 8.46951 27.129 8.70053C27.1291 8.93155 27.0834 9.1603 26.9947 9.37359C26.9059 9.58689 26.7758 9.7805 26.6119 9.94325Z" fill="#17B26A"/>
</g>
<defs>
<clipPath id="clip0_8373_57581">
<rect width="28" height="28" fill="white"/>
</clipPath>
</defs>
</svg>
