<svg width="28" height="28" viewBox="0 0 28 28" fill="none" xmlns="http://www.w3.org/2000/svg">
<g clip-path="url(#clip0_8373_57584)">
<path d="M21.875 14C21.8759 15.7861 21.267 17.5191 20.1491 18.912L9.08797 7.85094C10.2457 6.92427 11.6418 6.3436 13.1152 6.17584C14.5887 6.00808 16.0795 6.26006 17.416 6.90273C18.7524 7.54541 19.8801 8.55263 20.669 9.80832C21.4579 11.064 21.876 12.517 21.875 14ZM6.12501 14C6.12404 15.483 6.5421 16.936 7.33102 18.1917C8.11994 19.4474 9.2476 20.4546 10.5841 21.0973C11.9205 21.7399 13.4114 21.9919 14.8848 21.8242C16.3582 21.6564 17.7543 21.0757 18.912 20.1491L7.85094 9.08797C6.73296 10.4809 6.12407 12.2139 6.12501 14ZM25.8125 14C25.8125 16.3363 25.1197 18.6201 23.8217 20.5627C22.5238 22.5052 20.6789 24.0193 18.5205 24.9133C16.362 25.8074 13.9869 26.0413 11.6955 25.5855C9.4041 25.1297 7.29931 24.0047 5.64731 22.3527C3.9953 20.7007 2.87027 18.5959 2.41448 16.3045C1.95869 14.0131 2.19262 11.638 3.08668 9.47955C3.98074 7.3211 5.49478 5.47624 7.43733 4.17827C9.37989 2.88029 11.6637 2.1875 14 2.1875C17.1318 2.19097 20.1343 3.43662 22.3489 5.65114C24.5634 7.86566 25.809 10.8682 25.8125 14ZM23.625 14C23.625 12.0964 23.0605 10.2355 22.0029 8.65264C20.9453 7.06981 19.4421 5.83615 17.6833 5.10766C15.9246 4.37917 13.9893 4.18856 12.1223 4.55994C10.2552 4.93132 8.54018 5.84802 7.1941 7.1941C5.84802 8.54018 4.93133 10.2552 4.55995 12.1223C4.18856 13.9893 4.37917 15.9246 5.10766 17.6833C5.83616 19.4421 7.06982 20.9453 8.65264 22.0029C10.2355 23.0605 12.0964 23.625 14 23.625C16.5518 23.6221 18.9983 22.6071 20.8027 20.8027C22.6071 18.9983 23.6221 16.5518 23.625 14Z" fill="#F04438"/>
</g>
<defs>
<clipPath id="clip0_8373_57584">
<rect width="28" height="28" fill="white"/>
</clipPath>
</defs>
</svg>
