<svg width="28" height="28" viewBox="0 0 28 28" fill="none" xmlns="http://www.w3.org/2000/svg">
<g clip-path="url(#clip0_8373_57565)">
<path d="M14 23.625C19.3157 23.625 23.625 19.3157 23.625 14C23.625 8.68426 19.3157 4.375 14 4.375C8.68426 4.375 4.375 8.68426 4.375 14C4.375 19.3157 8.68426 23.625 14 23.625Z" stroke="black" stroke-width="1.75" stroke-linecap="round" stroke-linejoin="round"/>
<path d="M11.8125 14C13.0206 14 14 13.0206 14 11.8125C14 10.6044 13.0206 9.625 11.8125 9.625C10.6044 9.625 9.625 10.6044 9.625 11.8125C9.625 13.0206 10.6044 14 11.8125 14Z" stroke="black" stroke-width="1.75" stroke-linecap="round" stroke-linejoin="round"/>
<path d="M19.25 15.75C20.2165 15.75 21 14.9665 21 14C21 13.0335 20.2165 12.25 19.25 12.25C18.2835 12.25 17.5 13.0335 17.5 14C17.5 14.9665 18.2835 15.75 19.25 15.75Z" fill="black"/>
<path d="M14 21C14.9665 21 15.75 20.2165 15.75 19.25C15.75 18.2835 14.9665 17.5 14 17.5C13.0335 17.5 12.25 18.2835 12.25 19.25C12.25 20.2165 13.0335 21 14 21Z" fill="black"/>
<path d="M14 1.75V4.375" stroke="black" stroke-width="1.75" stroke-linecap="round" stroke-linejoin="round"/>
<path d="M26.25 14H23.625" stroke="black" stroke-width="1.75" stroke-linecap="round" stroke-linejoin="round"/>
<path d="M1.75 14H4.375" stroke="black" stroke-width="1.75" stroke-linecap="round" stroke-linejoin="round"/>
<path d="M14 23.625V26.25" stroke="black" stroke-width="1.75" stroke-linecap="round" stroke-linejoin="round"/>
<path d="M5.25 5.25L7.19359 7.19359" stroke="black" stroke-width="1.75" stroke-linecap="round" stroke-linejoin="round"/>
<path d="M20.8066 7.19359L22.7502 5.25" stroke="black" stroke-width="1.75" stroke-linecap="round" stroke-linejoin="round"/>
<path d="M22.7502 22.7502L20.8066 20.8066" stroke="black" stroke-width="1.75" stroke-linecap="round" stroke-linejoin="round"/>
<path d="M5.25 22.7502L7.19359 20.8066" stroke="black" stroke-width="1.75" stroke-linecap="round" stroke-linejoin="round"/>
</g>
<defs>
<clipPath id="clip0_8373_57565">
<rect width="28" height="28" fill="white"/>
</clipPath>
</defs>
</svg>
